<svg width="26" height="14" viewBox="0 0 26 14" fill="none" xmlns="http://www.w3.org/2000/svg">
<path d="M24.0734 8.81889C24.0099 9.62031 23.4564 10.3221 22.8711 10.8292C22.2269 11.3861 21.451 11.7484 20.6117 11.8933C19.7088 12.0472 18.7197 12.02 17.8441 11.7303C16.5964 11.3182 15.4576 10.5394 14.3642 9.78331C13.8061 9.39392 13.2299 8.95925 12.6719 8.56533C12.2908 8.29366 11.9006 8.02652 11.5059 7.76844C12.5403 6.78138 13.6564 5.62679 14.827 4.56729C15.7979 5.18759 16.7824 5.79885 17.8123 6.32407C18.8332 6.83118 19.913 7.27038 21.0835 7.28849C22.7259 7.32471 24.4818 6.65913 25.2349 5.10609C26.2603 2.91917 24.8583 0.700547 22.617 0.170795C19.5545 -0.576292 17.0547 1.25294 14.9449 3.22253C13.357 2.26264 11.7554 1.28916 10.0087 0.650741C9.01959 0.279462 7.93978 0.0168498 6.87812 0.0168498C4.99526 0.0168498 3.26665 0.646214 2.01897 1.79175C1.38379 2.37583 0.884719 3.07311 0.539905 3.87C0.181481 4.70312 0 5.62679 0 6.60932C0 8.62872 0.680553 10.304 1.96453 11.4586C2.57249 12.0065 3.30295 12.423 4.1423 12.7083C4.96804 12.989 5.88451 13.1293 6.86451 13.1293C9.01506 13.1293 10.1811 12.6132 10.8026 12.3143L11.1066 10.3991H11.0522C10.6756 10.9968 9.11033 12.183 7.15034 12.183C6.13405 12.183 5.10868 11.9702 4.21489 11.4812C3.1623 10.9062 2.37286 9.95989 1.96453 8.837C1.69231 8.08991 1.57888 7.29302 1.57888 6.50065C1.57888 4.83895 2.05073 3.43986 2.93545 2.4528C3.84739 1.44311 5.1722 0.949576 6.76016 0.949576C8.13034 0.949576 9.43246 1.45216 10.6393 2.05436C11.8235 2.6475 12.9441 3.34931 14.0557 4.0647C13.1165 4.98837 11.946 6.22899 10.7074 7.26585C10.4578 7.12096 10.2083 6.9806 9.95422 6.84929C9.29181 6.50971 8.57043 6.22446 7.82636 6.09315C6.7284 5.90299 5.47164 5.91657 4.56878 6.68629C3.7748 7.36094 3.58424 8.511 4.18313 9.3758C4.62776 10.0369 5.42174 10.39 6.18849 10.467C7.5859 10.6436 8.89256 9.96895 9.94968 9.14036C10.1629 8.97283 10.3807 8.79172 10.603 8.59702C11.0885 8.90039 11.5512 9.22186 11.9913 9.52522C13.1437 10.3402 14.2598 11.1824 15.4894 11.8978C16.1246 12.2645 16.787 12.5996 17.4947 12.826C18.8377 13.2742 20.3304 13.1882 21.6869 12.826C22.5989 12.5815 23.5018 12.174 24.2005 11.5175C24.4318 11.3092 25.0942 10.6798 25.2984 10.2542L24.1324 8.80983L24.078 8.82341L24.0734 8.81889ZM21.383 1.32086C22.4945 1.38424 23.7059 1.90494 24.078 2.99161C24.3411 3.73417 24.0961 4.5854 23.5108 5.11062C22.8666 5.69923 21.9546 5.90751 21.0881 5.91657C20.1534 5.91657 19.237 5.54529 18.3885 5.15137C17.5492 4.75292 16.6826 4.25487 15.7979 3.72512C17.5764 2.26264 19.4638 1.17597 21.383 1.31633V1.32086ZM6.33821 9.2445C5.96618 9.19922 5.54877 9.05433 5.31285 8.80078C4.78202 8.23933 5.19489 7.56016 5.85729 7.34735C6.24294 7.20699 6.7284 7.19793 7.15034 7.22963C8.01691 7.29755 8.86987 7.62808 9.682 8.05822C8.53867 8.86416 7.38173 9.38486 6.33821 9.23997V9.2445Z" fill="white"/>
</svg>
