<?xml version="1.0" standalone="no"?>
<!DOCTYPE svg PUBLIC "-//W3C//DTD SVG 1.1//EN" "http://www.w3.org/Graphics/SVG/1.1/DTD/svg11.dtd" >
<svg xmlns="http://www.w3.org/2000/svg" xmlns:xlink="http://www.w3.org/1999/xlink" version="1.1">
<metadata></metadata>
<defs>
<font id="collapselight_italic" horiz-adv-x="966" >
<font-face units-per-em="2048" ascent="1638" descent="-410" />
<missing-glyph horiz-adv-x="440" />
<glyph unicode="&#xfb01;" horiz-adv-x="1404" d="M-276 -420l36 168q82 -55 138 -55q117 0 185.5 112.5t102.5 323.5l156 975h-154l5 16l159 45q21 106 66.5 194.5t103 148t128 102t139 63.5t137.5 27l-35 -168q-86 65 -141 65q-109 0 -173 -110t-102 -336h270l-10 -47h-266l-141 -840q-24 -147 -71 -263t-104.5 -190.5 t-130.5 -125t-145 -74.5t-153 -31zM836 866q103 332 258 332q52 0 81 -29.5t34 -87t-3.5 -128t-31.5 -165.5l-95 -403q-38 -182 -41 -235q-6 -95 43 -95q44 0 87 55.5t94 204.5l18 -6q-46 -167 -111.5 -249.5t-140.5 -82.5q-36 0 -60 13.5t-36 40.5t-16 61.5t1 83t14.5 98 t24.5 113.5l95 401q39 166 38.5 248t-45.5 82q-47 0 -93 -56t-97 -204zM1110 1505q0 41 30 71t72 30q43 0 73 -30t30 -71q0 -44 -30 -74t-73 -30t-72.5 30t-29.5 74z" />
<glyph unicode="&#xfb02;" horiz-adv-x="1286" d="M-276 -420l36 168q82 -55 138 -55q117 0 185.5 112.5t102.5 323.5l156 975h-154l5 16l159 45q21 106 66.5 194.5t103 148t128 102t139 63.5t137.5 27l-35 -168q-86 65 -141 65q-109 0 -173 -110t-102 -336h270l-10 -47h-266l-141 -840q-24 -147 -71 -263t-104.5 -190.5 t-130.5 -125t-145 -74.5t-153 -31zM815 94q-4 33 1 83.5t13.5 97.5t22.5 112l221 1018q13 61 14.5 96t-12.5 56t-40 27.5t-74 6.5l2 19l284 90l10 -12l-282 -1303q-19 -87 -28 -144t-10 -101.5t10.5 -64.5t35.5 -20q43 0 86 58t94 204l17 -8q-43 -165 -108 -248.5 t-140 -83.5q-38 0 -63 13.5t-37.5 42t-16.5 61.5z" />
<glyph horiz-adv-x="0" />
<glyph horiz-adv-x="682" />
<glyph unicode=" "  horiz-adv-x="440" />
<glyph unicode="&#x09;" horiz-adv-x="440" />
<glyph unicode="&#xa0;" horiz-adv-x="440" />
<glyph unicode="!" horiz-adv-x="505" d="M47 90q0 41 28.5 69.5t69.5 28.5q43 0 73 -28.5t30 -69.5q0 -43 -30 -72.5t-73 -29.5q-41 0 -69.5 29.5t-28.5 72.5zM221 494l176 1144h152l-307 -1144h-21z" />
<glyph unicode="&#x22;" horiz-adv-x="620" d="M281 1108l55 530h139l-174 -530h-20zM537 1108l55 530h139l-174 -530h-20z" />
<glyph unicode="#" horiz-adv-x="1265" d="M31 459v84h342l119 551h-324v84h342l98 460h54l-99 -460h395l99 460h51l-98 -460h323v-84h-342l-119 -551h324v-84h-342l-98 -459h-51l98 459h-395l-99 -459h-53l98 459h-323zM426 543h395l119 551h-395z" />
<glyph unicode="$" horiz-adv-x="1007" d="M6 125l98 467l21 2l-12 -162q-8 -197 50.5 -296.5t201.5 -108.5l159 747l-12 12q-50 50 -76.5 78t-67 77.5t-61 88.5t-37 92t-16.5 105q0 181 134 305.5t325 126.5l32 158h41l-34 -160q175 -9 295 -144l-97 -452l-18 -2l10 145q7 185 -45 287t-156 117l-145 -686l33 -33 q46 -48 73 -77.5t62.5 -76.5t54.5 -86t33 -90.5t14 -105.5q0 -124 -54 -228.5t-163 -172t-254 -72.5l-39 -183h-41l39 183q-105 3 -186 38t-162 107zM375 1307q0 -91 48.5 -173.5t139.5 -177.5l137 656q-141 0 -233 -87t-92 -218zM406 27q87 2 154 33.5t105 82.5t57 109.5 t19 122.5q0 103 -49 188.5t-135 177.5z" />
<glyph unicode="%" horiz-adv-x="1366" d="M55 0l1309 1700h68l-1309 -1700h-68zM242 940.5q-42 117.5 0 304.5q41 191 132 302.5t206 111.5q116 0 160 -112t3 -302q-41 -192 -130.5 -307t-209.5 -115q-119 0 -161 117.5zM328 976q14 -112 84 -112t128.5 107t92.5 274q37 172 20.5 272.5t-82.5 100.5 q-65 0 -124.5 -101t-96.5 -272q-36 -157 -22 -269zM721 399q41 191 132 302.5t206 111.5q116 0 160.5 -112t3.5 -302q-41 -192 -130.5 -307t-209.5 -115q-119 0 -161 115t-1 307zM807 130q14 -112 84 -112t128.5 107t92.5 274q37 172 21 272.5t-82 100.5q-65 0 -125 -101 t-97 -272q-36 -157 -22 -269z" />
<glyph unicode="&#x26;" horiz-adv-x="1353" d="M20 334q32 153 159.5 300t314.5 253l-66 125q-44 84 -58.5 174.5t3.5 169.5q29 136 138 219.5t286 83.5q141 0 213.5 -79t46.5 -200q-16 -71 -60 -141h408q-59 -260 -178 -496.5t-275 -414.5q90 -169 135.5 -226.5t110.5 -81.5l-6 -20h-231l-115 219q-264 -239 -533 -239 q-167 0 -247.5 96t-45.5 258zM154 369q-29 -140 32.5 -221.5t196.5 -81.5q221 0 440 196l-311 590q-136 -93 -232.5 -222.5t-125.5 -260.5zM508 1391q-30 -155 53 -310l64 -125q133 88 213 197t102 213q24 107 -17.5 177.5t-134.5 70.5q-116 0 -187.5 -61t-92.5 -162z M641 926l236 -455l53 -100q109 126 187.5 280t111.5 312q20 79 2 129t-77 76t-179 40q-113 -156 -334 -282z" />
<glyph unicode="'" horiz-adv-x="364" d="M281 1108l55 530h139l-174 -530h-20z" />
<glyph unicode="(" horiz-adv-x="731" d="M200.5 382q2.5 171 39.5 347q140 672 712 1010l9 -17q-451 -347 -588 -993q-48 -228 -50.5 -443.5t45.5 -395.5t142 -287l-16 -19q-99 79 -167 203.5t-98.5 274t-28 320.5z" />
<glyph unicode=")" horiz-adv-x="729" d="M-199 -397q214 165 372 442.5t230 616.5q72 341 33 618.5t-184 441.5l16 17q201 -160 271.5 -442.5t-2.5 -634.5q-73 -350 -264.5 -633t-462.5 -445z" />
<glyph unicode="*" horiz-adv-x="636" d="M213 1395l53 100l201 -104l20 245h107l-84 -245l248 106l10 -100l-254 -45l133 -181l-100 -61l-72 217l-164 -219l-71 63l209 181z" />
<glyph unicode="+" horiz-adv-x="1038" d="M164 801v61h325v324h62v-324h323v-61h-323v-326h-62v326h-325z" />
<glyph unicode="," horiz-adv-x="380" d="M-156 -240q90 36 157 112.5t83 147.5q-42 0 -72 25t-30 66q0 46 30 77t80 31q44 0 70 -26t26 -72q0 -99 -108.5 -220t-233.5 -161z" />
<glyph unicode="-" horiz-adv-x="622" d="M109 602l18 78h410l-19 -78h-409z" />
<glyph unicode="." horiz-adv-x="358" d="M-27 90q0 41 29 69.5t70 28.5q43 0 72.5 -28.5t29.5 -69.5q0 -43 -29.5 -72.5t-72.5 -29.5q-41 0 -70 29.5t-29 72.5z" />
<glyph unicode="/" horiz-adv-x="555" d="M-141 -205l815 1905h90l-815 -1905h-90z" />
<glyph unicode="0" horiz-adv-x="1153" d="M96 471q0 92 13.5 198.5t42.5 221.5t70.5 224.5t101 208.5t129.5 173.5t161 118t191 43.5q169 0 260.5 -129.5t91.5 -364.5q0 -89 -13.5 -194t-42.5 -219.5t-70 -224.5t-100.5 -209t-129.5 -174t-161 -119.5t-191 -44.5q-175 0 -264 129t-89 362zM229 414q0 -181 56 -284 t172 -103q77 0 149 48.5t127.5 129t103.5 186t82 219t58 227t35.5 212t11.5 172.5q0 188 -58.5 289.5t-170.5 101.5q-107 0 -202.5 -91.5t-160 -231t-112 -305t-69.5 -313.5t-22 -257z" />
<glyph unicode="1" horiz-adv-x="835" d="M-23 0l5 20q79 6 126 14t82 21t54 39.5t31 57.5t24 88l266 1249l-289 -164l-4 18l439 316l12 -12l-299 -1407q-10 -47 -13.5 -75.5t1 -54t17 -38.5t40.5 -24.5t64.5 -17t95.5 -10.5l-6 -20h-646z" />
<glyph unicode="2" horiz-adv-x="1032" d="M-78 31q19 19 88.5 82.5t136 125t160 155t173 180t162 192t140.5 199t94.5 193t36.5 181.5q0 102 -60.5 156.5t-176.5 54.5q-151 0 -275.5 -109.5t-177.5 -295.5l-16 2q44 235 187 373.5t339 138.5q158 0 242 -72t84 -201q0 -90 -43.5 -198t-108.5 -207t-163 -212.5 t-182.5 -199.5t-192.5 -183.5t-169 -149t-134 -111.5h421q66 0 110.5 6t86.5 23.5t72.5 50.5t58.5 85t53 128l39 121l17 -4l-121 -535h-873z" />
<glyph unicode="3" horiz-adv-x="1050" d="M8 104l90 457h19l-8 -172q-8 -178 66.5 -270t230.5 -92q76 0 141.5 25t111 66.5t78.5 96.5t48.5 115t15.5 121q0 151 -101 244.5t-288 105.5l2 16q101 22 197.5 73t173 120.5t123 159t46.5 180.5q0 99 -65 155t-182 56q-152 0 -285 -111.5t-184 -294.5l-19 2 q42 228 192 365t343 137q161 0 250.5 -73t89.5 -200q0 -88 -41 -173t-110 -153.5t-156.5 -122t-184.5 -85.5q155 -23 246.5 -123t91.5 -246q0 -142 -74.5 -258t-200.5 -180.5t-276 -64.5q-124 0 -205.5 28t-175.5 96z" />
<glyph unicode="4" horiz-adv-x="1142" d="M-27 399l963 1239h94l-246 -1157h283l-18 -82h-283l-33 -161q-12 -54 -14.5 -86.5t3 -58.5t27 -39t53 -21t85.5 -13l-4 -20h-545l4 20q77 6 119.5 16t73 36t44.5 62t29 104l33 161h-668zM90 481h569l215 1008z" />
<glyph unicode="5" horiz-adv-x="1034" d="M-6 104l98 457h19l-17 -166q-21 -368 293 -368q92 0 172 44.5t131.5 115.5t81 156t29.5 169q0 184 -148.5 299.5t-443.5 142.5l227 684h527q67 0 101 16t60 60l29 47l18 -6l-110 -242h-621l-145 -446q322 -34 482.5 -170.5t160.5 -337.5q0 -159 -78 -293t-208 -210 t-281 -76q-123 0 -204 28.5t-173 95.5z" />
<glyph unicode="6" horiz-adv-x="1150" d="M80 422q0 143 35.5 287.5t101.5 278t165 251t220 207t273 146t317 67.5l-2 -19q-168 -22 -317 -98.5t-261 -190.5t-193.5 -250.5t-131.5 -289.5q87 101 199 157t229 56q165 0 254.5 -95t89.5 -265q0 -132 -43 -255t-120.5 -218.5t-194.5 -153t-255 -57.5 q-176 0 -271 116.5t-95 325.5zM215 383q0 -170 62 -263t178 -93q92 0 171.5 44.5t132 114t90 156.5t54.5 171.5t17 158.5q0 140 -64 218.5t-182 78.5q-112 0 -218.5 -54t-183.5 -149q-57 -191 -57 -383z" />
<glyph unicode="7" horiz-adv-x="1011" d="M119 0l928 1513h-609q-68 0 -102 -15.5t-62 -59.5l-26 -45l-21 4l113 241h809l-885 -1638h-145z" />
<glyph unicode="8" horiz-adv-x="1081" d="M41 266q0 169 133.5 317.5t329.5 239.5q-238 173 -238 379q0 127 66.5 232t184 165t259.5 60q164 0 257 -73.5t93 -199.5q0 -107 -63 -207.5t-157 -173.5t-214 -128q273 -191 273 -426q0 -144 -73 -252t-194.5 -163.5t-273.5 -55.5q-181 0 -282 76t-101 210zM154 272 q0 -115 73 -180t211 -65q179 0 289.5 96.5t110.5 257.5q0 117 -75 216.5t-231 205.5q-161 -95 -269.5 -237.5t-108.5 -293.5zM391 1268q0 -188 268 -371q160 91 257.5 215t97.5 266q0 106 -64 170t-184 64q-161 0 -268 -102t-107 -242z" />
<glyph unicode="9" horiz-adv-x="1150" d="M55 -20l4 18q168 22 317 98.5t261 190.5t194 250.5t132 289.5q-87 -100 -199.5 -156.5t-228.5 -56.5q-165 0 -255 95.5t-90 265.5q0 133 43 255.5t120 218t194 153t256 57.5q175 0 269.5 -116.5t94.5 -325.5q0 -142 -35.5 -286.5t-101 -278t-164.5 -251.5t-220 -207.5 t-273 -146t-318 -67.5zM330 967q0 -141 63 -219t180 -78q113 0 220.5 53.5t183.5 148.5q57 191 57 383q0 170 -62.5 263.5t-178.5 93.5q-92 0 -171 -44.5t-131.5 -114t-90 -156.5t-54 -171.5t-16.5 -158.5z" />
<glyph unicode=":" horiz-adv-x="423" d="M10 102q0 41 29 70t70 29q43 0 72.5 -29t29.5 -70q0 -43 -29.5 -72.5t-72.5 -29.5q-41 0 -70 29.5t-29 72.5zM201 1001q0 41 28.5 70t69.5 29q43 0 72.5 -29t29.5 -70q0 -43 -29.5 -72.5t-72.5 -29.5q-41 0 -69.5 29.5t-28.5 72.5z" />
<glyph unicode=";" horiz-adv-x="413" d="M-125 -240q90 36 157 112.5t83 147.5q-42 0 -72.5 25t-30.5 66q0 46 30.5 77t80.5 31q44 0 70 -26t26 -72q0 -99 -108.5 -220t-233.5 -161zM205 1004q0 41 28.5 69.5t69.5 28.5q43 0 73 -28.5t30 -69.5q0 -43 -30 -73t-73 -30q-41 0 -69.5 30t-28.5 73z" />
<glyph unicode="&#x3c;" horiz-adv-x="1003" d="M-35 795v73l690 353v-72l-632 -318l632 -317v-72z" />
<glyph unicode="=" horiz-adv-x="997" d="M164 627v61h670v-61h-670zM164 975v61h670v-61h-670z" />
<glyph unicode="&#x3e;" horiz-adv-x="1003" d="M164 442v72l633 317l-633 318v72l690 -353v-73z" />
<glyph unicode="?" horiz-adv-x="903" d="M209 1110l59 403q201 146 432 146q150 0 236 -64.5t86 -181.5q0 -70 -24.5 -132t-71.5 -114.5t-98.5 -93t-122.5 -84.5q-143 -90 -187 -125q-131 -103 -145 -226q-2 -17 -2 -34q0 -75 32 -143l-22 -10q-64 134 -64 227q0 52 17 98.5t44 82.5t66.5 70t79.5 61.5t88 58.5 q23 14 35 22q62 40 103 72.5t82.5 77t62 97t20.5 112.5q0 86 -57 134t-160 48q-52 0 -96.5 -9t-94 -35.5t-91 -70t-82.5 -116.5t-74 -171l-35 -102zM221 90q0 41 28.5 69.5t69.5 28.5q43 0 73 -28.5t30 -69.5q0 -43 -30 -72.5t-73 -29.5q-41 0 -69.5 29.5t-28.5 72.5z" />
<glyph unicode="@" horiz-adv-x="1718" d="M117 588q37 172 133 332t230.5 282.5t311 196.5t361.5 74q279 0 420.5 -175t79.5 -464q-16 -76 -49.5 -159t-85 -166.5t-112.5 -149.5t-139 -107t-159 -41q-105 0 -153.5 56t-24.5 175q19 78 61 179l31 71q-135 -227 -253.5 -351t-207.5 -124q-64 0 -87.5 63t-0.5 169 q17 80 57.5 173.5t101 186t131 167.5t156.5 122t168 47q76 0 119 -53l90 55l23 -14l-193 -455q-72 -173 -94 -264q-17 -83 2.5 -120.5t75.5 -37.5q58 0 119 47t109.5 118t90.5 157t69.5 163t39.5 136q53 253 -47 403t-330 150q-138 0 -271.5 -53t-240 -142.5t-194.5 -203.5 t-145.5 -238t-82.5 -246q-21 -106 -19.5 -200t34.5 -171.5t88 -133.5t141.5 -87t196.5 -31q154 0 311.5 57t288.5 162l8 -22q-145 -121 -315 -188.5t-332 -67.5q-193 0 -325 94.5t-181 259t-6 369.5zM602.5 377q11.5 -47 46.5 -47q72 0 201.5 162.5t271.5 437.5l58 135 q-29 43 -88 43q-83 0 -168 -67t-148 -165.5t-107.5 -198.5t-60.5 -177q-17 -76 -5.5 -123z" />
<glyph unicode="A" d="M-51 51q0 90 131.5 366t499.5 974q45 88 45 133q0 49 -46.5 72.5t-144.5 23.5v18h357v-1638h-127v545q-330 -313 -472.5 -431t-201.5 -118q-41 0 -41 55zM104 238q0 -43 39 -43q43 0 160.5 86t360.5 309v891q-321 -639 -440.5 -909t-119.5 -334z" />
<glyph unicode="B" horiz-adv-x="1134" d="M-53 0l4 20q108 13 150 64t73 199l227 1073q20 89 20 143q1 33 -7 53q-20 52 -125 66l6 20h360q231 0 359.5 -81t128.5 -226q0 -119 -69.5 -215.5t-179.5 -154t-245 -78.5q178 -29 275.5 -121.5t97.5 -229.5q0 -119 -59.5 -220.5t-159 -169t-228.5 -105t-268 -37.5h-360z M248 37l59 2q163 6 294 71.5t206.5 180.5t75.5 258q0 148 -108 231.5t-302 83.5h-49zM430 901h51q231 0 377 125.5t146 308.5q0 124 -95.5 194t-267.5 70h-61z" />
<glyph unicode="C" horiz-adv-x="1040" d="M68 492q0 107 20 231t58.5 256t101 253t140.5 216.5t184 153t225 57.5q112 0 193.5 -35.5t150.5 -110.5l-101 -475l-20 -2l12 142q2 37 2 71q0 186 -47 267q-55 96 -201 96q-72 0 -138.5 -36.5t-120 -100t-100.5 -147.5t-82.5 -179t-63.5 -194t-46 -194.5t-27 -178 t-9 -146.5q0 -194 65 -301.5t185 -107.5q143 0 237 89t184 316l56 164l18 -2l-100 -477q-196 -137 -404 -137q-178 0 -275 136t-97 376z" />
<glyph unicode="D" horiz-adv-x="1138" d="M-53 0l4 20q108 13 150 64t73 199l227 1073q20 89 20 143q1 33 -7 53q-20 52 -125 66l6 20h326q259 0 399.5 -148t140.5 -415q0 -95 -16.5 -196.5t-52 -206.5t-86.5 -202.5t-125 -183t-162 -149t-203.5 -100.5t-243.5 -37h-325zM248 39h31q121 0 229 50t187.5 134.5 t143.5 193t103.5 228t60.5 236t21 221.5q0 235 -106.5 366t-303.5 131h-34z" />
<glyph unicode="E" horiz-adv-x="1122" d="M-53 0l4 20q108 13 150 64t73 199l227 1073q20 89 20 143q1 33 -7 53q-20 52 -125 66l6 20h930l-97 -450l-22 -2l10 127q0 86 -13 141t-41.5 85t-66 41t-94.5 11h-321l-150 -706h180q90 0 139 43.5t105 179.5l43 123l23 -2l-158 -733l-23 -2l11 122v23q0 117 -28 157 q-32 44 -124 44h-180l-166 -793h332q57 0 100 14t85 51t81 103t80 168l45 127l20 -2l-108 -508h-940z" />
<glyph unicode="F" horiz-adv-x="1089" d="M-53 0l4 20q108 13 150 64t73 199l227 1073q20 89 20 143q1 33 -7 53q-20 52 -125 66l6 20h944l-98 -467l-25 -2l14 127v14q0 80 -10 134q-12 58 -40.5 90.5t-66 44.5t-95.5 12h-340l-160 -762h168q89 0 139.5 44.5t103.5 177.5l43 123l21 -3l-156 -733l-22 -2l10 123v29 q1 110 -27 150q-32 44 -123 44h-167l-107 -499q-19 -78 -19 -130q0 -43 14 -69q30 -54 163 -64l-4 -20h-508z" />
<glyph unicode="G" horiz-adv-x="1089" d="M66 485q0 109 20.5 234.5t59.5 258t102.5 254t141.5 217t183.5 153t223.5 57.5q113 0 195 -35.5t151 -110.5l-96 -458l-21 -2q7 97 7 174q0 94 -10 159q-18 120 -72.5 173t-157.5 53q-111 0 -210.5 -87.5t-167.5 -221.5t-117.5 -294.5t-73 -306.5t-23.5 -256 q0 -198 63.5 -308.5t181.5 -110.5q191 0 312 161l84 406q13 61 16 100v20q0 26 -4 45q-7 27 -30.5 42t-55 22.5t-86.5 12.5l4 18h326l-156 -725q-205 -149 -430 -149q-172 0 -266 133.5t-94 371.5z" />
<glyph unicode="H" horiz-adv-x="1355" d="M-53 0l4 20q108 13 150 64t73 199l227 1073q20 89 20 143q1 33 -7 53q-20 52 -125 66l6 20h461l-4 -20q-108 -13 -150.5 -64t-73.5 -198l-92 -438h625l92 438q20 88 20 142q0 34 -8 54q-21 52 -125 66l7 20h460l-4 -20q-108 -13 -150 -63.5t-73 -198.5l-227 -1073 q-21 -86 -21 -141v-9q2 -56 30.5 -80t100.5 -33l-4 -20h-461l4 20q108 13 150.5 64t73.5 199l125 587h-625l-125 -587q-21 -86 -21 -141v-9q2 -56 31 -80t101 -33l-4 -20h-461z" />
<glyph unicode="I" horiz-adv-x="624" d="M-43 0l4 20q108 13 150 64t73 199l228 1073q20 88 20 142q0 34 -8 54q-21 52 -125 66l6 20h461l-4 -20q-108 -13 -150 -63.5t-73 -198.5l-228 -1073q-21 -86 -21 -141v-9q2 -56 31 -80t101 -33l-4 -20h-461z" />
<glyph unicode="J" horiz-adv-x="690" d="M-137 -354q93 98 149.5 170.5t96.5 152.5t62 154.5t48 195.5l221 1037q20 84 20 138v12q-3 55 -31.5 79t-100.5 33l4 20h461l-5 -20q-57 -7 -91.5 -20.5t-59.5 -45.5t-39.5 -75.5t-30.5 -120.5l-288 -1356l-396 -379z" />
<glyph unicode="K" horiz-adv-x="1150" d="M-53 0l4 20q108 13 150 64t73 199l227 1073q20 89 20 143q1 33 -7 53q-20 52 -125 66l6 20h461l-4 -20q-108 -13 -150.5 -64t-73.5 -198l-133 -627l570 651q96 112 96 170q0 62 -96 70l2 18h387l-4 -18q-165 -41 -355 -258l-223 -254l205 -1108h-137l-176 983l-283 -321 l-80 -379q-21 -86 -21 -141v-9q2 -56 31 -80t101 -33l-4 -20h-461z" />
<glyph unicode="L" horiz-adv-x="999" d="M-53 0l4 20q108 13 150 64t73 199l227 1073q20 89 20 143q1 33 -7 53q-20 52 -125 66l6 20h461l-6 -20q-104 -12 -146 -58t-69 -171l-285 -1342h217q68 0 117 14.5t98 54.5t93 113t91 189l56 139l16 -4l-125 -553h-866z" />
<glyph unicode="M" horiz-adv-x="1554" d="M-47 0l6 20q35 9 62.5 25.5t48.5 35.5t40 55t32 67.5t28.5 90t26 105.5t28.5 131l176 826q20 89 20 143q1 33 -7 53q-20 52 -125 66l6 20h309l121 -1357l680 1357h301l-4 -20q-108 -13 -150 -63.5t-73 -198.5l-228 -1073q-21 -86 -21 -141v-9q2 -56 31 -80t101 -33 l-4 -20h-461l4 20q108 13 150 64t73 199l258 1214l-747 -1497h-23l-131 1509l-209 -979q-24 -109 -36 -177q-12 -67 -16 -131q-1 -20 -2 -37q0 -37 7 -63q10 -36 33 -62.5t64 -39.5l-5 -20h-364z" />
<glyph unicode="N" horiz-adv-x="1314" d="M-47 0l6 20q34 8 61.5 23.5t48.5 34t39.5 53.5t31.5 66.5t28.5 90t26 105.5t28.5 131l178 832q20 89 20 143q1 33 -7 53q-20 52 -125 66l6 20h237l447 -1347l180 850q18 84 27.5 134.5t17.5 104.5q8 48 8 77v7q-1 30 -5.5 59t-18.5 45t-34.5 28.5t-51.5 21.5l4 20h364 l-6 -20q-40 -10 -68 -23.5t-52 -41.5t-39.5 -56.5t-33.5 -87t-31 -114t-34 -154.5l-243 -1141h-27l-473 1427l-193 -903q-17 -78 -26.5 -130.5t-17.5 -106.5t-8 -89t4.5 -67.5t17 -52.5t33 -35t49.5 -23l-5 -20h-364z" />
<glyph unicode="O" horiz-adv-x="1116" d="M66 475q0 92 14.5 199t44.5 221.5t72.5 223.5t103.5 207.5t132 172t162 117t191 43.5q174 0 269.5 -131t95.5 -365q0 -88 -14 -192t-44 -218t-72 -224t-103 -209.5t-132 -175t-163 -120t-193 -44.5q-181 0 -272.5 131t-91.5 364zM199 430q0 -187 59 -295t180 -108 q92 0 175.5 62t145 163.5t112 227.5t81.5 259t47.5 252.5t16.5 212.5q0 194 -61.5 301t-178.5 107q-91 0 -174.5 -63.5t-145 -167t-111.5 -231.5t-81.5 -261t-48 -251.5t-16.5 -207.5z" />
<glyph unicode="P" horiz-adv-x="995" d="M-53 0l4 20q108 13 150 64t73 199l227 1073q20 89 20 143q1 33 -7 53q-20 52 -125 66l6 20h326q212 0 331 -106.5t119 -292.5q0 -101 -29.5 -197t-88 -178.5t-139.5 -145.5t-190.5 -101.5t-234.5 -43.5h-29l-67 -323q-10 -48 -13.5 -81t1 -58.5t15 -40.5t33.5 -25.5 t51.5 -15.5t72.5 -9l-4 -20h-502zM371 610l14 2q128 6 234 65t173 151t103.5 203t36.5 226q0 158 -84.5 250t-237.5 92h-30z" />
<glyph unicode="Q" horiz-adv-x="1140" d="M66 483q0 92 14 198t44 219.5t72.5 222.5t103 206t132 170.5t163.5 116.5t193 43q174 0 269.5 -135t95.5 -373q0 -89 -14 -192t-43.5 -215t-71 -219.5t-101 -205t-129.5 -171.5t-160 -119.5t-188 -48.5l-14 -119h498v-19l-555 -133l-21 6l62 265q-163 6 -256.5 136 t-93.5 367zM201 428q0 -187 59 -294t180 -107q91 0 174.5 63.5t145.5 166.5t113 230.5t83 260.5t49 250.5t17 205.5q0 193 -64 300.5t-180 107.5q-91 0 -174.5 -63.5t-145 -167.5t-111.5 -232t-81.5 -261.5t-48 -252t-16.5 -207.5z" />
<glyph unicode="R" horiz-adv-x="1075" d="M-53 0l4 20q108 13 150 64t73 199l227 1073q20 89 20 143q1 33 -7 53q-20 52 -125 66l6 20h377q211 0 330.5 -86t119.5 -235q0 -171 -121 -300.5t-307 -174.5l264 -13l-84 -858l-22 -4l-27 631q-17 134 -50.5 177.5t-115.5 43.5h-243l-115 -536q-11 -57 -17 -95 q-3 -23 -4 -42q0 -12 2 -24q4 -30 13 -47t31 -29t50 -17t73 -9l-5 -20h-497zM422 856h94q108 0 199 42.5t148.5 111t89.5 150.5t32 165q0 127 -84.5 200.5t-236.5 73.5h-84z" />
<glyph unicode="S" horiz-adv-x="993" d="M2 125l98 467l21 2l-15 -162v-34q0 -182 60 -272q66 -100 221 -99q157 0 252.5 98t95.5 248q0 106 -55 205t-174 208q-134 127 -196 230.5t-62 208.5q0 182 135 308t326 126q102 0 178 -35.5t145 -110.5l-92 -438l-18 -4l12 139q2 40 2 75q0 158 -47 234q-58 93 -197 93 q-135 0 -229 -87.5t-94 -219.5q0 -94 61 -192.5t193 -223.5q124 -121 180.5 -222t56.5 -214q0 -140 -67 -249t-180 -166.5t-251 -57.5q-116 0 -192.5 33t-167.5 112z" />
<glyph unicode="T" horiz-adv-x="1071" d="M152 0l4 20q67 10 105.5 23.5t68.5 44.5t46.5 76t33.5 125l276 1306h-164q-100 0 -159.5 -59t-116.5 -213l-66 -176l-22 2l104 489h993l-102 -489l-23 -2l9 176q2 31 2 59q0 106 -28 154q-35 60 -134 59h-166l-276 -1306q-13 -65 -17 -106q-1 -17 -2 -32q0 -21 3 -39 q5 -30 25.5 -47.5t50 -27.5t79.5 -17l-4 -20h-520z" />
<glyph unicode="U" horiz-adv-x="1251" d="M211 567l166 789q21 85 21 138v12q-2 56 -31 79.5t-101 32.5l4 20h463l-6 -20q-108 -13 -150 -63.5t-73 -198.5l-166 -789q-30 -143 -30 -241q0 -90 26 -144q54 -112 244 -112q157 0 258 121.5t155 375.5l152 713q29 117 29 190q0 28 -4 50q-16 78 -109 100l4 18h362 l-2 -18q-103 -22 -149.5 -95t-83.5 -245l-152 -713q-63 -298 -193 -442.5t-335 -144.5q-222 0 -294 139q-37 72 -37 191q0 109 32 257z" />
<glyph unicode="V" horiz-adv-x="1206" d="M229 1620l4 18h467l-2 -18q-106 -14 -141 -60.5t-35 -146.5l2 -102l56 -1057l495 1059q72 158 72 211q0 83 -113 96l2 18h383l-4 -18q-99 -18 -158.5 -84t-136.5 -229l-620 -1327h-31l-78 1327q-8 166 -40 231t-122 82z" />
<glyph unicode="W" horiz-adv-x="1529" d="M229 1620l4 18h480l-2 -18q-65 -4 -105 -22.5t-62 -59.5t-30.5 -91.5t-11.5 -135.5l-49 -1008l485 1075v260h129l-8 -1294l364 961q4 12 14 40t14.5 40.5t12 35.5t11 37t6 31t2.5 31q0 44 -28 68.5t-89 31.5l2 18h375l-4 -18q-99 -26 -155.5 -94t-117.5 -228l-495 -1318 h-31l-2 1294l-586 -1294h-30l49 1327q1 30 1 56q0 72 -8 116q-11 61 -42 93.5t-93 47.5z" />
<glyph unicode="X" horiz-adv-x="1212" d="M-123 0l6 20q58 17 108 46.5t99 76.5t91 96.5t100 127.5l327 448l-133 514q-35 142 -76.5 207.5t-124.5 83.5l2 18h476l-4 -18q-162 -13 -162 -127q0 -42 32 -176l97 -371l268 369q44 61 64.5 90.5t38.5 66.5t18 62q0 73 -127 86l2 18h397l-2 -18q-96 -29 -163 -92 t-183 -221l-299 -414l152 -586q37 -140 75 -199.5t119 -87.5l-4 -20h-485l4 20q88 10 133 39t45 95q0 49 -31 170l-114 438l-299 -410q-138 -180 -138 -256q0 -63 123 -76l-4 -20h-428z" />
<glyph unicode="Y" horiz-adv-x="1105" d="M203 0l4 20q108 13 150 64t73 199l117 559l-105 487q-29 138 -70.5 205t-133.5 86l4 18h479l-4 -18q-89 -12 -128.5 -45.5t-39.5 -93.5q0 -37 26 -160l89 -410l264 412q106 169 106 223q0 31 -29 49t-94 25l2 18h398l-4 -18q-111 -35 -178 -100t-162 -213l-289 -451 l-121 -573q-21 -86 -21 -141v-9q2 -56 31 -80t101 -33l-4 -20h-461z" />
<glyph unicode="Z" horiz-adv-x="935" d="M-51 0l969 1591h-242q-92 0 -150.5 -25.5t-112.5 -96t-116 -209.5l-53 -123l-17 4l113 497h739l-966 -1591h272q66 0 114 14t97.5 53t94 113.5t91.5 190.5l56 139l16 -4l-125 -553h-780z" />
<glyph unicode="[" horiz-adv-x="686" d="M23 -410l458 2151h441l-9 -25l-319 -30l-434 -2040l309 -31l-6 -25h-440z" />
<glyph unicode="\" horiz-adv-x="956" d="M262 1700h88l412 -1905h-88z" />
<glyph unicode="]" horiz-adv-x="686" d="M-201 -410l4 25l322 31l434 2040l-307 30l2 25h440l-454 -2151h-441z" />
<glyph unicode="^" horiz-adv-x="686" d="M215 1339l363 381h10l203 -381l-23 -18l-213 262l-326 -262z" />
<glyph unicode="_" horiz-adv-x="942" d="M-43 -106l16 69h729l-16 -69h-729z" />
<glyph unicode="`" horiz-adv-x="497" d="M311 1700h162l107 -371h-23z" />
<glyph unicode="a" horiz-adv-x="1044" d="M47 268q0 104 26 227.5t78.5 246.5t122.5 224t167 164.5t202 63.5q102 0 172 -70l98 74l21 -20l-168 -793q-37 -169 -37 -247.5t41 -82.5q5 -1 10 -1q42 0 82 51q44 57 96 212l19 -8q-47 -172 -115 -256q-63 -77 -132 -77q-7 0 -13 1q-91 7 -106 113q-4 26 -4 58 q0 95 34 239l66 311q-119 -337 -249 -529t-247 -192q-45 0 -78.5 26.5t-51.5 70.5t-26 92.5t-8 101.5zM180 311q0 -211 92 -211q94 0 234.5 235t251.5 613l33 156q-55 55 -132 55q-89 0 -169 -61.5t-135 -157t-96 -210.5t-60 -223.5t-19 -195.5z" />
<glyph unicode="b" horiz-adv-x="987" d="M45 0l299 1405q13 61 14.5 96.5t-13 56t-40.5 27t-74 6.5l2 19l285 90l10 -12l-260 -1229q121 345 251.5 540t248.5 195q84 0 129 -75.5t45 -188.5q0 -106 -27 -232.5t-81 -253.5t-125 -231.5t-168 -170t-201 -65.5q-100 0 -174 68l-100 -65zM186 70q55 -58 136 -58 q90 0 171 64t136.5 162.5t97 216t61 226t19.5 191.5q0 52 -8.5 94t-32.5 73.5t-61 31.5q-94 0 -234 -236.5t-254 -617.5z" />
<glyph unicode="c" horiz-adv-x="911" d="M70 360q0 84 15.5 176.5t45 187t78 179.5t109.5 151t144 105t177 39q144 0 240 -84l-80 -328l-17 2l2 144v23q0 196 -151 196q-81 0 -152.5 -56t-119.5 -143t-83 -192t-51 -203t-16 -176q0 -144 47.5 -228.5t140.5 -84.5q109 0 203.5 109.5t145.5 293.5l28 -2 q-48 -227 -161.5 -358t-266.5 -131q-135 0 -206.5 100.5t-71.5 279.5z" />
<glyph unicode="d" horiz-adv-x="1062" d="M41 240q0 107 27.5 234.5t82 254.5t126 231t168.5 169t200 65q93 0 162 -57l59 268q13 61 14.5 96t-12.5 56t-40 27.5t-74 6.5v19l286 90l11 -12l-283 -1303q-13 -58 -21.5 -103t-13.5 -82t-6 -63t3.5 -44t13 -27t22.5 -11q5 -1 10 -1q40 0 80 52q46 58 98 211l19 -8 q-47 -172 -115 -256q-63 -77 -133 -77q-7 0 -14 1q-47 4 -72 31t-30 82q-2 20 -2 41q0 39 6 83q9 70 32 173l72 326q-120 -344 -251.5 -540t-248.5 -196q-85 0 -130.5 75t-45.5 188zM178 299q0 -35 5 -67t15.5 -63.5t31.5 -50t49 -18.5q95 0 236 240t255 627v-2l31 135 q-59 59 -137 59q-65 0 -125.5 -33.5t-108 -89.5t-89 -129.5t-71 -154.5t-50.5 -163.5t-31.5 -156.5t-10.5 -133z" />
<glyph unicode="e" horiz-adv-x="884" d="M68 360q0 82 17 174t48.5 186t81.5 180t111.5 152.5t143 106t171.5 39.5q93 0 143 -57t50 -142q0 -347 -613 -479q-12 -83 -12 -149q0 -147 50 -228.5t144 -81.5q118 0 218.5 107t150.5 295h31q-46 -217 -166 -350t-275 -133q-136 0 -215 98.5t-79 281.5zM227 553 q212 48 355 186t143 301q0 53 -24 86t-74 33q-76 0 -145 -56.5t-118 -148t-83.5 -193.5t-53.5 -208z" />
<glyph unicode="f" horiz-adv-x="745" d="M-276 -420l36 168q82 -55 138 -55q117 0 185.5 112.5t102.5 323.5l156 975h-154l5 16l159 45q21 106 66.5 194.5t103 148t128 102t139 63.5t137.5 27l-35 -168q-86 65 -141 65q-109 0 -173 -110t-102 -336h270l-10 -47h-266l-141 -840q-24 -147 -71 -263t-104.5 -190.5 t-130.5 -125t-145 -74.5t-153 -31z" />
<glyph unicode="g" horiz-adv-x="974" d="M-78 -420l35 168q124 -106 238 -106q135 0 236.5 111.5t143.5 312.5l136 630q-119 -335 -249 -527t-245 -192q-85 0 -130.5 75t-45.5 188q0 107 27.5 234.5t82 254.5t126 231t168.5 169t200 65q98 0 170 -66l96 56l19 -6l-199 -932q-81 -382 -275 -539 q-163 -132 -429 -132q-50 0 -105 5zM178 299q0 -35 5 -67t15.5 -63.5t31.5 -50t49 -18.5q94 0 232 232.5t251 609.5l35 162q-58 55 -135 55q-74 0 -142.5 -44.5t-120 -117.5t-94.5 -164.5t-70 -188t-42 -186t-15 -159.5z" />
<glyph unicode="h" horiz-adv-x="1079" d="M45 0l299 1405q13 61 14.5 96.5t-13 56t-40.5 27t-74 6.5l2 19l285 90l10 -12l-198 -932q89 213 203 326.5t229 113.5q93 0 140.5 -57t47.5 -160q0 -95 -37 -231l-100 -363q-47 -167 -47 -254q0 -25 2.5 -39.5t13.5 -25.5t31 -11q44 0 86.5 57.5t93.5 204.5l19 -8 q-44 -166 -109 -249t-139 -83q-121 0 -121 150q0 96 45 260l96 358q39 142 39 228q0 145 -118 145q-124 0 -249 -178t-196 -510l-92 -430h-123z" />
<glyph unicode="i" horiz-adv-x="694" d="M125 866q103 332 258 332q52 0 81 -30q29 -28 34 -86q2 -21 2 -45q0 -39 -6 -83q-8 -70 -31 -166l-94 -403q-38 -182 -41 -235q-1 -10 -1 -20q0 -75 44 -75q43 0 86 55.5t94 204.5l18 -6q-46 -167 -111.5 -249.5t-140.5 -82.5q-42 0 -68 21q-27 20 -37 54q-8 27 -8 68v20 q2 54 12.5 111.5t29.5 135.5l94 401q39 166 39 248t-45 82q-47 0 -93.5 -56t-97.5 -204zM401 1505q0 41 30 71t73 30q42 0 72 -30t30 -71q0 -44 -29.5 -74t-72.5 -30t-73 30t-30 74z" />
<glyph unicode="j" horiz-adv-x="528" d="M-322 -420l37 168q70 -45 115 -45q144 0 240 206t202 707q27 126 40.5 214t15.5 156v14q0 57 -14 86q-15 32 -48 32q-43 0 -85.5 -58t-92.5 -202l-18 8q100 332 258 332q71 0 101 -58q23 -43 23 -131q0 -28 -2 -60q-10 -134 -63 -361q-54 -236 -119.5 -413t-132 -285.5 t-146 -177.5t-152 -97t-159.5 -35zM350 1505q0 41 30 71t73 30t72.5 -30t29.5 -71q0 -44 -29.5 -74t-72.5 -30t-73 30t-30 74z" />
<glyph unicode="k" horiz-adv-x="1054" d="M45 0l299 1405q13 61 14.5 96.5t-13 56t-40.5 27t-74 6.5l2 19l285 90l10 -12l-219 -1022q103 249 245 390.5t255 141.5q76 0 115 -38t39 -103q0 -102 -84.5 -224.5t-231.5 -232.5l12 -127q15 -158 35 -253.5t40.5 -130t45.5 -36.5h3q35 0 75 57q42 60 92 205l19 -6 q-43 -164 -109 -248q-63 -81 -130 -81h-5q-34 2 -60.5 24t-50.5 73t-41 142t-28 223l-8 82l-297 -188l-72 -336h-123zM248 373l272 188q145 99 231.5 222.5t86.5 228.5q0 100 -84 100q-47 0 -110 -41.5t-130.5 -117.5t-134 -201.5t-111.5 -276.5z" />
<glyph unicode="l" horiz-adv-x="557" d="M86 94q-2 15 -2 33q0 23 3 51q5 50 13.5 97t22.5 112l221 1018q13 61 14.5 96t-13 56t-40.5 27.5t-74 6.5l2 19l285 90l10 -12l-282 -1303q-19 -87 -28 -144t-10 -101v-7q0 -39 10 -58q12 -20 36 -20q43 0 86 58t94 204l17 -8q-43 -165 -108 -248.5t-140 -83.5 q-38 0 -63 13.5t-37.5 42t-16.5 61.5z" />
<glyph unicode="m" horiz-adv-x="1675" d="M68 866q53 174 119 254q64 78 137 78h6q91 -3 107 -109q4 -27 4 -60q0 -96 -35 -241l-5 -16q86 207 195.5 316.5t220.5 109.5q183 0 184 -218q0 -58 -14 -132q81 170 177 260t194 90q77 0 122 -38t56 -104q7 -40 7 -83q1 -29 -3 -59q-8 -76 -33 -166l-96 -363 q-23 -85 -35 -146t-13 -102.5t11 -61.5t37 -20q43 0 86 57.5t92 202.5l19 -6q-44 -165 -109 -247t-141 -82q-56 0 -85 29t-32 87q-1 13 -1 26q0 46 9 100q11 68 37 165l96 358q12 46 20 90q9 43 12 97q1 15 1 29q0 36 -6 64q-8 39 -34.5 66t-71.5 27q-95 0 -189 -112 t-166 -330l-170 -676h-123l187 745q19 77 27 137q6 42 6 82q1 18 -1 35q-4 57 -32 88t-80 31q-116 0 -232.5 -163t-189.5 -470l-104 -485h-123l168 788q19 91 28 148.5t10 100t-9 61.5t-31 20h-5q-44 0 -88 -53q-46 -56 -100 -207z" />
<glyph unicode="n" horiz-adv-x="1148" d="M68 866q53 174 119 254q64 78 137 78h6q91 -3 107 -109q4 -27 4 -60q0 -96 -35 -241l-7 -24q89 209 203 321.5t227 112.5q63 0 104.5 -26t60 -68t21.5 -102q1 -14 0 -28q0 -46 -7 -94q-10 -62 -29 -132l-96 -363q-12 -45 -21 -82t-16.5 -76t-9 -68.5t1.5 -54t14.5 -37 t30.5 -12.5q43 0 86 57.5t92 202.5l18 -6q-44 -165 -108.5 -247t-139.5 -82q-41 0 -67.5 17.5t-37 51.5t-12.5 71q-1 9 -1 18q0 31 6 70q8 51 17 90t22 89l96 358q35 132 35 218q0 155 -117 155q-56 0 -115 -39.5t-117 -115t-110.5 -200t-89.5 -280.5l-104 -483h-123 l168 788q19 91 28 148.5t10 100t-9 61.5t-31 20h-5q-44 0 -88 -53q-46 -56 -100 -207z" />
<glyph unicode="o" horiz-adv-x="985" d="M96 598q60 280 199.5 440t325.5 160q187 0 259 -163q39 -89 38 -214q0 -105 -27 -235q-63 -291 -205 -448.5t-324 -157.5t-256 162q-40 87 -39 212q0 108 29 244zM202 308v-16q0 -118 40 -194q44 -80 131 -80q121 0 221 157t154 411q34 168 35 296v5q0 124 -43 197 q-44 75 -128 75q-119 0 -219.5 -151.5t-156.5 -409.5q-31 -161 -34 -290z" />
<glyph unicode="p" horiz-adv-x="1050" d="M25 -410l258 1198q38 176 38 251.5t-42 78.5h-5q-44 0 -88 -53q-47 -56 -100 -207l-18 8q53 174 119 254q64 78 137 78h6q91 -3 107 -109q4 -28 4 -62q0 -95 -33 -239l-68 -315q119 337 249 529t245 192q85 0 130.5 -75.5t45.5 -188.5q0 -83 -19 -184t-54 -208t-89 -207 t-118.5 -179t-149 -127t-174.5 -48q-89 0 -160 58l-96 -445h-125zM252 70q55 -58 135 -58q76 0 145.5 45.5t121.5 119.5t94.5 166.5t69 189.5t40.5 184.5t14 154.5q0 34 -4.5 66t-15 63.5t-31.5 50.5t-49 19q-94 0 -233.5 -235.5t-253.5 -614.5z" />
<glyph unicode="q" horiz-adv-x="976" d="M47 268q0 104 26 227.5t78.5 246.5t122.5 224t167 164.5t202 63.5q102 0 172 -70l96 74l21 -20l-336 -1588h-125l234 1102q-119 -335 -248.5 -525t-245.5 -190q-45 0 -78.5 26.5t-51.5 70.5t-26 92.5t-8 101.5zM180 311q0 -211 92 -211q94 0 234 234t252 610l33 160 q-55 55 -132 55q-89 0 -169 -61.5t-135 -157t-96 -210.5t-60 -223.5t-19 -195.5z" />
<glyph unicode="r" horiz-adv-x="821" d="M68 866q100 332 256 332q49 0 77 -26q27 -25 35 -77q4 -28 5 -60q1 -28 -3 -59q-6 -67 -26 -161q78 205 180 299q93 85 212 85q13 0 25 -1l-53 -205q-51 62 -110 62q-203 0 -338 -625l-92 -430h-123l168 788q38 175 38 251q0 79 -43 79q-48 0 -93 -56t-97 -204z" />
<glyph unicode="s" horiz-adv-x="870" d="M25 53l84 391l20 2l-8 -129v-23q1 -134 45 -198q48 -68 158 -69q90 0 153.5 46.5t81.5 131.5q6 28 6 55q0 32 -8 62q-15 58 -49 105.5t-78 94.5t-87.5 94.5t-77.5 97.5t-49 110q-8 31 -8 63q0 30 7 61q25 117 119.5 183.5t232.5 66.5q168 0 264 -84l-65 -303l-18 -2v131 q-1 109 -47.5 160t-141.5 51q-88 0 -146 -42t-73 -118q-5 -24 -5 -47q0 -30 9 -62q16 -54 50.5 -101.5t78 -95.5t87 -98.5t77.5 -102.5q35 -51 49 -115q7 -33 7 -66q0 -32 -7 -65q-28 -123 -122 -190.5t-240 -67.5q-174 0 -299 73z" />
<glyph unicode="t" horiz-adv-x="743" d="M129 379l156 725h-146l2 20q195 82 308 248l16 -4l-47 -219h344l-8 -45h-344l-152 -709q-19 -89 -19 -152q-1 -49 11 -83q26 -76 115 -76q74 0 141 70t121 204l20 -6q-54 -180 -145 -276t-207 -96q-189 0 -189 220q0 76 23 179z" />
<glyph unicode="u" horiz-adv-x="1140" d="M68 866q100 332 251 332q37 0 62 -13.5t37 -41t16 -61.5q2 -15 3 -32q0 -23 -4 -52q-6 -50 -15 -98.5t-25 -113.5l-92 -368q-31 -123 -31 -204q0 -157 117 -157q108 0 229 188.5t199 520.5l86 410h125l-168 -789q-39 -177 -38 -254q0 -78 42 -78q47 0 93.5 56.5 t97.5 205.5l18 -8q-99 -329 -256 -329q-36 0 -60 13.5t-37 40.5q-14 27 -18 61q-3 19 -2 43q0 18 2 39q4 48 11.5 96.5t21.5 111.5l12 55q-89 -220 -199 -340t-214 -120q-73 0 -117.5 36t-58.5 100q-9 45 -9 96q0 23 2 46q6 77 29 170l90 360q15 61 24.5 105.5t16 83t7 64 t-4 44t-14.5 27t-27 8.5q-44 0 -88 -58t-96 -204z" />
<glyph unicode="v" horiz-adv-x="1181" d="M70 985q40 104 107 159.5t153 55.5q42 0 74 -14.5t55.5 -47.5t38.5 -79.5t22.5 -116.5t7.5 -152v-13q0 -78 -5 -180q-6 -111 -16.5 -232.5t-27.5 -276.5q158 122 278 288t177 315t57 263q0 81 -30 133t-97 52q-57 0 -108.5 -41.5t-89.5 -120.5l-19 12q47 100 122 156.5 t159 56.5q85 0 136.5 -52.5t51.5 -148.5q0 -102 -55.5 -237.5t-151.5 -274.5t-239.5 -276t-304.5 -233l-19 20q16 234 24 394t10 294q1 42 1 78q1 81 -3 135q-6 79 -20.5 134.5t-37 76.5t-56.5 21q-53 0 -98.5 -41t-77.5 -117z" />
<glyph unicode="w" horiz-adv-x="1665" d="M70 985q40 104 107 159.5t153 55.5q56 0 94.5 -26.5t62.5 -86.5q25 -61 35 -145q8 -66 8 -158q0 -27 -1 -56q-3 -130 -15 -282t-35 -360q266 197 434 502q3 92 3 166q0 96 -5 162q-9 118 -35 167.5t-75 49.5q-111 0 -183 -160l-18 10q88 217 266 217q57 0 96.5 -27.5 t63 -89.5t33.5 -147q8 -65 8 -157q0 -28 -1 -58q-3 -130 -15 -277t-35 -350q205 185 332 431.5t127 428.5q0 80 -31 132.5t-98 52.5q-56 0 -107.5 -41.5t-89.5 -120.5l-19 12q47 100 122 156.5t159 56.5q85 0 136.5 -52.5t51.5 -148.5q0 -142 -91.5 -330t-253.5 -374.5 t-353 -316.5l-20 20q21 332 28 483q-106 -147 -245.5 -278t-298.5 -225l-19 20q12 176 19 304.5t12 246.5t5 198t-4 149t-13 110t-23 70t-33 40.5t-45 11.5q-111 0 -176 -155z" />
<glyph unicode="x" horiz-adv-x="1058" d="M-29 14l506 559v5q7 151 7 256v9q0 99 -11 162q-11 66 -36.5 95.5t-71.5 29.5q-112 0 -183 -155l-18 10q43 105 110.5 160t153.5 55q66 0 106 -29.5t60.5 -92t24.5 -160.5q2 -44 2 -95q0 -64 -3 -141q218 280 267 496h176l8 -15l-453 -526l-2 -35q-7 -156 -7 -256 q0 -83 5 -127q17 -153 96 -170q11 -2 23 -2q53 0 98.5 40.5t77.5 117.5l17 -12q-37 -103 -103.5 -158t-154.5 -55q-53 0 -89 23t-57.5 67.5t-32 110t-12.5 151.5q-1 43 -1 91t1 101q-213 -282 -307 -524h-188z" />
<glyph unicode="y" horiz-adv-x="1191" d="M-178 -420l35 176q35 -5 71 -5q96 0 202 38q145 53 288 162q0 81 1.5 191t3 190.5t1.5 178.5q1 14 1 27q0 81 -3 142q-3 71 -8.5 146.5t-17.5 126.5t-30 93.5t-44.5 63t-61.5 20.5q-53 0 -97.5 -41.5t-74.5 -113.5l-16 10q37 102 104.5 158.5t155.5 56.5 q60 0 104.5 -34.5t71 -91t41.5 -142.5t20 -172q3 -58 3 -128v-72q-3 -113 -8 -206.5t-13 -207.5q-4 -59 -6 -87q199 188 325.5 428t126.5 453q0 199 -133 199q-59 0 -110.5 -41.5t-87.5 -120.5l-19 12q46 100 120.5 156.5t162.5 56.5t140 -57t52 -158q0 -129 -59.5 -278.5 t-158.5 -291t-231.5 -279t-275.5 -248t-293 -192.5t-282 -118z" />
<glyph unicode="z" horiz-adv-x="1034" d="M-20 25l927 1062q-115 -98 -211 -98q-77 0 -180 53q-67 33 -125 33q-142 0 -233 -198l-19 8q74 166 150.5 236.5t161.5 70.5q72 0 180 -53q78 -37 160 -37q133 0 213 96l36 -33l-915 -1042q129 113 237 113q84 0 166 -56q80 -57 146 -57q133 0 223 203l16 -9 q-127 -319 -307 -319q-86 0 -194 80q-71 57 -154 57q-130 0 -244 -141h-2z" />
<glyph unicode="{" horiz-adv-x="514" d="M29 -203l127 590q52 246 -113 246l6 24q163 0 215 246l125 590q26 115 104.5 171t213.5 56l-7 -22q-143 0 -186 -205l-127 -590q-26 -127 -89.5 -191.5t-154.5 -64.5v-4q91 0 127.5 -64.5t10.5 -191.5l-127 -590q-43 -205 100 -205l-6 -22q-135 0 -189.5 56t-29.5 171z " />
<glyph unicode="|" horiz-adv-x="499" d="M-6 -410l446 2110h88l-446 -2110h-88z" />
<glyph unicode="}" horiz-adv-x="514" d="M-168 -430l4 22q143 0 189 205l122 590q29 127 92 191.5t154 64.5l2 4q-91 0 -127.5 65t-7.5 191l125 590q43 205 -100 205l4 22q135 0 189 -55.5t32 -171.5l-127 -590q-53 -246 111 -246l-5 -24q-165 0 -217 -246l-122 -590q-49 -227 -318 -227z" />
<glyph unicode="~" horiz-adv-x="1030" d="M164 756q0 92 49.5 146t134.5 54q51 0 103.5 -23.5t89.5 -51t83.5 -51t86.5 -23.5q57 0 92.5 39.5t40.5 107.5h22q0 -94 -44.5 -148t-121.5 -54q-51 0 -103.5 23.5t-89 51t-83 51t-86.5 23.5q-66 0 -108 -39t-46 -106h-20z" />
<glyph unicode="&#xa1;" horiz-adv-x="505" d="M-33 -410l307 1145h21l-176 -1145h-152zM268 1139q0 43 30 72.5t73 29.5q41 0 69.5 -29.5t28.5 -72.5q0 -41 -28.5 -70t-69.5 -29q-43 0 -73 29t-30 70z" />
<glyph unicode="&#xa2;" horiz-adv-x="854" d="M29 367q0 96 22 204.5t67.5 217t107 197t149.5 147t186 65.5l62 289h47l-62 -289q131 -11 195.5 -123.5t25.5 -290.5h-143l49 232q-6 64 -41.5 99.5t-95.5 35.5l-229 -1083h18q100 0 200.5 108t151.5 287h31q-44 -208 -163 -343t-259 -140l-47 -226h-47l49 228 q-131 13 -202.5 115.5t-71.5 269.5zM172 379q0 -122 38.5 -200t113.5 -103l227 1069q-92 -21 -168.5 -112t-120 -211t-67 -236.5t-23.5 -206.5z" />
<glyph unicode="&#xa3;" horiz-adv-x="1206" d="M-23 0l7 20q262 97 433 256t171 316q0 91 -64 176l-14 20h-307l10 48h262q-81 115 -119.5 205t-38.5 180q0 128 68.5 229t182.5 155t251 54q135 0 226 -36.5t159 -109.5l-96 -452l-18 -2l12 145q9 207 -63 307.5t-232 100.5q-156 0 -262.5 -85t-106.5 -227q0 -90 50 -190 t161 -254l13 -20h282l-10 -48h-248q29 -66 29 -129q0 -168 -164.5 -337.5t-435.5 -274.5h420q74 0 129.5 8.5t108.5 30.5t94.5 61t80 100t72.5 148l55 140l17 -3l-121 -532h-994z" />
<glyph unicode="&#xa4;" horiz-adv-x="1333" d="M154 197l196 194q-96 117 -96 266q0 148 96 265l-194 196l51 51l192 -196q119 98 269 98q147 0 264 -96l196 192l52 -51l-197 -192q98 -116 98 -267q0 -149 -96 -266l193 -196l-52 -52l-192 197q-116 -98 -266 -98q-148 0 -267 98l-196 -195zM326 657 q2 -141 101.5 -241.5t240.5 -100.5t241.5 100.5t100.5 241.5q0 140 -100.5 240t-241.5 100q-140 0 -240 -100t-102 -240z" />
<glyph unicode="&#xa5;" horiz-adv-x="1091" d="M164 598l10 47h324l34 158h-325l10 47h320l-103 479q-29 138 -71 205t-134 86l4 18h480l-4 -18q-89 -12 -128.5 -45.5t-39.5 -93.5q0 -37 26 -160l88 -410l265 412q106 169 106 223q0 31 -29 49t-94 25l2 18h398l-5 -18q-111 -35 -178 -100t-162 -213l-288 -451v-6h307 l-10 -47h-308l-34 -158h307l-10 -47h-306l-67 -315q-23 -94 -21 -150t30.5 -80t100.5 -33l-4 -20h-460l4 20q108 13 150 64t73 199l67 315h-325z" />
<glyph unicode="&#xa6;" horiz-adv-x="499" d="M-6 -410l162 770h88l-162 -770h-88zM279 930l161 770h88l-161 -770h-88z" />
<glyph unicode="&#xa7;" horiz-adv-x="1323" d="M39 -287l82 389l20 4q-17 -261 70.5 -375t284.5 -114q95 0 177 29.5t136 78t84.5 111t30.5 127.5q0 102 -100 178t-328 152q-83 29 -146.5 59.5t-120 70t-86.5 87.5t-30 102q0 167 299 387q-70 76 -70 183q0 122 73 232t196.5 176.5t262.5 66.5q240 0 390 -144l-82 -389 l-19 -4q14 258 -66 374t-245 116q-101 0 -192.5 -48t-147 -129t-55.5 -173q0 -102 91.5 -180t289.5 -146q83 -29 147.5 -60t120.5 -70t86.5 -87.5t30.5 -102.5q0 -160 -283 -372q98 -82 98 -203q0 -88 -42.5 -172.5t-115.5 -150.5t-179.5 -106t-225.5 -40q-154 0 -257 35 t-179 108zM223 694q0 -47 29.5 -89t86 -77.5t120 -63.5t149.5 -58q202 -67 307 -144q195 153 195 270q0 47 -29.5 89.5t-86 78t-120 63.5t-149.5 58q-201 69 -291 156q-211 -162 -211 -283z" />
<glyph unicode="&#xa8;" horiz-adv-x="684" d="M276 1516q0 38 26 64t63 26q40 0 67 -26t27 -64t-27.5 -65.5t-66.5 -27.5q-37 0 -63 27.5t-26 65.5zM621 1516q0 38 25.5 64t62.5 26q40 0 67 -26t27 -64t-27.5 -65.5t-66.5 -27.5q-37 0 -62.5 27.5t-25.5 65.5z" />
<glyph unicode="&#xa9;" horiz-adv-x="1654" d="M145 819q0 222 97 407t265 291.5t370 106.5q201 0 368.5 -106.5t264 -291.5t96.5 -407q0 -167 -57 -316.5t-154 -257t-232 -170.5t-286 -63q-202 0 -370 106.5t-265 292t-97 408.5zM223 819q0 -211 86.5 -387t236.5 -277.5t331 -101.5q135 0 255.5 60t207 162t137.5 244 t51 300t-51 299.5t-137.5 243.5t-207 161.5t-255.5 59.5q-181 0 -331 -101t-236.5 -276.5t-86.5 -386.5zM504 811v14q0 258 110.5 419t276.5 161q158 0 272 -102l41 -332l-24 -2l-33 114q-46 154 -104 217.5t-152 63.5q-119 0 -189.5 -145.5t-70.5 -393.5v-14 q0 -247 70.5 -393t189.5 -146q94 0 152 58t102 202l35 130l24 -3l-41 -331q-120 -97 -272 -97q-166 0 -276.5 161t-110.5 419z" />
<glyph unicode="&#xab;" horiz-adv-x="1071" d="M133 559v10l518 486l15 -17l-381 -473l180 -475l-23 -16zM469 559v10l489 449l15 -17l-355 -436l168 -440l-22 -16z" />
<glyph unicode="&#xac;" horiz-adv-x="1028" d="M164 858v62h670v-363h-62v301h-608z" />
<glyph unicode="&#xad;" horiz-adv-x="622" d="M109 602l18 78h410l-19 -78h-409z" />
<glyph unicode="&#xae;" horiz-adv-x="1155" d="M225 1235q0 134 65.5 245.5t178.5 175.5t248 64q204 0 345.5 -140.5t141.5 -344.5t-141.5 -344.5t-345.5 -140.5q-135 0 -248 64t-178.5 175.5t-65.5 245.5zM303 1235q0 -187 120 -315.5t294 -128.5q172 0 290.5 128.5t118.5 315.5t-118.5 315.5t-290.5 128.5 q-174 0 -294 -128.5t-120 -315.5zM516 942v14q41 7 53.5 24.5t12.5 59.5v412q0 42 -12.5 58t-53.5 20v14h172q108 0 167.5 -40t59.5 -113q0 -50 -40.5 -88t-102.5 -56h111l57 -305h-27l-88 223q-21 62 -77 62h-95v-187q0 -49 16 -63.5t74 -20.5v-14h-227zM653 1251h43 q66 0 102 38t36 102q0 62 -37.5 95.5t-110.5 33.5h-33v-269z" />
<glyph unicode="&#xaf;" horiz-adv-x="614" d="M268 1489l13 57h460l-10 -57h-463z" />
<glyph unicode="&#xb0;" horiz-adv-x="880" d="M285 1341q0 132 91.5 225t223.5 93t223.5 -93t91.5 -225q0 -131 -91.5 -223t-223.5 -92t-223.5 92t-91.5 223zM346 1341q0 -106 74 -180t180 -74t180 74t74 180t-74 181t-180 75t-180 -75t-74 -181z" />
<glyph unicode="&#xb1;" horiz-adv-x="1038" d="M164 244v61h690v-61h-690zM164 801v61h325v324h62v-324h323v-61h-323v-326h-62v326h-325z" />
<glyph unicode="&#xb4;" horiz-adv-x="419" d="M236 1329l182 371h162l-324 -371h-20z" />
<glyph unicode="&#xb6;" horiz-adv-x="1202" d="M170 1188q43 206 194 328t363 122h616l-6 -20q-108 -13 -150 -63.5t-73 -198.5l-225 -1073q-23 -94 -21 -150t30.5 -80t100.5 -33l-4 -20h-272l287 1356q32 145 22.5 203.5t-71.5 58.5t-96.5 -57t-65.5 -205l-289 -1356h-313l6 20q69 6 107.5 15.5t69 35.5t47 66.5 t32.5 112.5l104 489q-231 0 -335 120.5t-58 328.5z" />
<glyph unicode="&#xb7;" horiz-adv-x="358" d="M84 608q0 41 28.5 70t69.5 29q43 0 73 -29t30 -70q0 -43 -30 -72.5t-73 -29.5q-41 0 -69.5 29.5t-28.5 72.5z" />
<glyph unicode="&#xb8;" horiz-adv-x="587" d="M-106 -274l26 22q28 -37 77.5 -58.5t100.5 -21.5t92 28t41 75q0 42 -50.5 68.5t-151.5 27.5l147 133l8 -4l-51 -105q97 -6 148 -37t51 -85q0 -71 -64 -114.5t-153 -43.5q-68 0 -127 28.5t-94 86.5z" />
<glyph unicode="&#xbb;" horiz-adv-x="1069" d="M86 125l354 436l-168 440l23 17l295 -451v-10l-490 -448zM393 88l381 473l-180 475l22 17l310 -486v-10l-518 -485z" />
<glyph unicode="&#xbc;" horiz-adv-x="1480" d="M78 0l1423 1700h66l-1422 -1700h-67zM141 844l2 10q82 7 107 26t39 81l125 593l-138 -59l-2 8l236 156l8 -6l-145 -692q-14 -62 1 -81t87 -26l-2 -10h-318zM803 195l450 598h70l-117 -551h125l-10 -47h-127l-16 -80q-12 -62 0.5 -80.5t74.5 -24.5l-2 -10h-288l2 10 q72 6 94.5 24.5t36.5 80.5l16 80h-309zM866 242h256l101 475z" />
<glyph unicode="&#xbd;" horiz-adv-x="1427" d="M31 0l1423 1700h66l-1422 -1700h-67zM141 844l2 10q82 7 107 26t39 81l125 593l-138 -59l-2 8l236 156l8 -6l-145 -692q-14 -62 1 -81t87 -26l-2 -10h-318zM788 14q0 1 25.5 24.5t65.5 63t88.5 90.5t97 110.5t88.5 118t65 119.5t25 109q0 92 -98 92q-69 0 -126.5 -48.5 t-80.5 -131.5l-10 2q18 104 88 177t168 73q78 0 118.5 -35t40.5 -98q0 -66 -46 -151t-110 -158.5t-133 -140t-114.5 -104t-54.5 -42.5h184q29 0 40 0.5t32 2t29.5 6t22.5 13t22 21.5t17.5 32.5t18.5 45.5l21 59l8 -2l-59 -262h-428z" />
<glyph unicode="&#xbe;" horiz-adv-x="1521" d="M113 0l1423 1700h66l-1422 -1700h-67zM147 874l48 238h10v-86q6 -176 139 -176q61 0 104.5 43t60.5 93t17 95q0 141 -176 150l2 10q105 22 174.5 100t69.5 156q0 45 -28.5 69.5t-82.5 24.5q-67 0 -133 -48t-90 -134h-8q15 103 89.5 176.5t174.5 73.5q81 0 125.5 -35.5 t44.5 -97.5q0 -86 -68.5 -159t-160.5 -105q70 -14 113.5 -60.5t43.5 -114.5q0 -113 -82.5 -188.5t-197.5 -75.5q-63 0 -104 11t-85 40zM844 195l450 598h70l-117 -551h125l-10 -47h-127l-16 -80q-12 -62 0.5 -80.5t74.5 -24.5l-2 -10h-288l2 10q72 6 94.5 24.5t36.5 80.5 l16 80h-309zM907 242h256l101 475z" />
<glyph unicode="&#xbf;" horiz-adv-x="903" d="M-109 -184q0 70 24.5 132t72 114.5t99 92.5t122.5 85q143 90 187 125q131 103 145 226q2 17 2 34q0 73 -33 143l22 10q64 -134 64 -227q0 -52 -17 -98.5t-44 -82.5t-66.5 -70t-79.5 -61.5t-88 -58.5q-23 -14 -35 -22q-62 -40 -103 -72.5t-82.5 -77t-62 -97t-20.5 -112.5 q0 -86 57 -134t160 -48q52 0 96.5 9t94 35t91 69.5t82.5 116.5t74 171l35 103l17 -2l-60 -404q-200 -145 -432 -145q-150 0 -236 64.5t-86 181.5zM492 1139q0 43 29.5 72.5t72.5 29.5q41 0 69.5 -29.5t28.5 -72.5q0 -41 -28.5 -70t-69.5 -29q-43 0 -72.5 29t-29.5 70z" />
<glyph unicode="&#xc0;" d="M-51 51q0 90 131.5 366t499.5 974q45 88 45 133q0 49 -46.5 72.5t-144.5 23.5v18h357v-1638h-127v545q-330 -313 -472.5 -431t-201.5 -118q-41 0 -41 55zM104 238q0 -43 39 -43q43 0 160.5 86t360.5 309v891q-321 -639 -440.5 -909t-119.5 -334zM526 2023h174l66 -274 h-27z" />
<glyph unicode="&#xc1;" d="M-51 51q0 90 131.5 366t499.5 974q45 88 45 133q0 49 -46.5 72.5t-144.5 23.5v18h357v-1638h-127v545q-330 -313 -472.5 -431t-201.5 -118q-41 0 -41 55zM104 238q0 -43 39 -43q43 0 160.5 86t360.5 309v891q-321 -639 -440.5 -909t-119.5 -334zM662 1749l184 274h174 l-330 -274h-28z" />
<glyph unicode="&#xc2;" d="M-51 51q0 90 131.5 366t499.5 974q45 88 45 133q0 49 -46.5 72.5t-144.5 23.5v18h357v-1638h-127v545q-330 -313 -472.5 -431t-201.5 -118q-41 0 -41 55zM104 238q0 -43 39 -43q43 0 160.5 86t360.5 309v891q-321 -639 -440.5 -909t-119.5 -334zM461 1767l325 248h11 l219 -248l-17 -16l-227 137l-301 -137z" />
<glyph unicode="&#xc3;" d="M-51 51q0 90 131.5 366t499.5 974q45 88 45 133q0 49 -46.5 72.5t-144.5 23.5v18h357v-1638h-127v545q-330 -313 -472.5 -431t-201.5 -118q-41 0 -41 55zM104 238q0 -43 39 -43q43 0 160.5 86t360.5 309v891q-321 -639 -440.5 -909t-119.5 -334zM459 1749 q20 96 75.5 154.5t122.5 58.5q32 0 62.5 -14.5t53.5 -35t45 -40.5t45.5 -34.5t45.5 -14.5q35 0 67.5 38t49.5 99h25q-18 -95 -69.5 -154t-111.5 -59q-39 0 -76.5 21.5t-62 47t-54.5 47t-56 21.5q-46 0 -83.5 -36.5t-56.5 -98.5h-22z" />
<glyph unicode="&#xc4;" d="M-51 51q0 90 131.5 366t499.5 974q45 88 45 133q0 49 -46.5 72.5t-144.5 23.5v18h357v-1638h-127v545q-330 -313 -472.5 -431t-201.5 -118q-41 0 -41 55zM104 238q0 -43 39 -43q43 0 160.5 86t360.5 309v891q-321 -639 -440.5 -909t-119.5 -334zM528 1882q0 34 23.5 58 t58.5 24t59.5 -24t24.5 -58q0 -35 -24.5 -59.5t-59.5 -24.5t-58.5 24.5t-23.5 59.5zM821 1882q0 34 23 58t57 24q35 0 60.5 -24t25.5 -58q0 -35 -25.5 -59.5t-60.5 -24.5q-34 0 -57 24.5t-23 59.5z" />
<glyph unicode="&#xc5;" d="M-51 51q0 90 131.5 366t499.5 974q45 88 45 133q0 49 -46.5 72.5t-144.5 23.5v18h357v-1638h-127v545q-330 -313 -472.5 -431t-201.5 -118q-41 0 -41 55zM104 238q0 -43 39 -43q43 0 160.5 86t360.5 309v891q-321 -639 -440.5 -909t-119.5 -334zM578 1911q0 73 50 123.5 t122 50.5t123 -50.5t51 -123.5q0 -72 -51 -122t-123 -50t-122 50t-50 122zM631 1911q0 -51 34 -87t85 -36t84.5 35.5t33.5 87.5t-33.5 87.5t-84.5 35.5t-85 -36t-34 -87z" />
<glyph unicode="&#xc6;" horiz-adv-x="1484" d="M-53 49q0 30 13 75.5t45.5 119t67 146t97.5 194.5t116.5 223.5t144.5 275t161 308.5q45 88 45 133q0 49 -46.5 72.5t-144.5 23.5v18h1135l-96 -450l-23 -2l11 127q1 85 -12 140.5t-42 85.5t-67 41t-95 11h-452l26 -706h136q91 0 140 43t103 180l45 123l23 -2l-158 -733 l-22 -2l8 122q3 93 -11 141t-46 65.5t-95 17.5h-123l31 -795h115q110 0 170 65t145 273l45 127l21 -2l-109 -508h-512l-22 596q-379 -353 -458 -422q-191 -166 -258 -177q-6 -1 -11 -1q-41 0 -41 53zM102 233q0 -38 39 -38q45 0 172 95t400 349l-31 852 q-335 -659 -457.5 -925t-122.5 -333z" />
<glyph unicode="&#xc7;" horiz-adv-x="1040" d="M68 492q0 107 20 231t58.5 256t101 253t140.5 216.5t184 153t225 57.5q112 0 193.5 -35.5t150.5 -110.5l-101 -475l-20 -2l12 142q10 242 -45 338t-201 96q-72 0 -138.5 -36.5t-120 -100t-100.5 -147.5t-82.5 -179t-63.5 -194t-46 -194.5t-27 -178t-9 -146.5 q0 -194 65 -301.5t185 -107.5q143 0 237 89t184 316l56 164l18 -2l-100 -477q-196 -137 -404 -137h-24l-25 -86q111 -8 170.5 -43t59.5 -95q0 -67 -65 -105t-146 -38q-67 0 -135.5 28.5t-116.5 86.5l20 22q37 -37 94 -58.5t109 -21.5q54 0 94.5 23t40.5 65q0 47 -56 78.5 t-167 32.5l100 113q-156 19 -240.5 152.5t-84.5 357.5z" />
<glyph unicode="&#xc8;" horiz-adv-x="1122" d="M-53 0l4 20q108 13 150 64t73 199l227 1073q33 144 12.5 196.5t-124.5 65.5l6 20h930l-97 -450l-22 -2l10 127q0 86 -13 141t-41.5 85t-66 41t-94.5 11h-321l-150 -706h180q90 0 139 43.5t105 179.5l43 123l23 -2l-158 -733l-23 -2l11 122q3 136 -28.5 180t-123.5 44 h-180l-166 -793h332q57 0 100 14t85 51t81 103t80 168l45 127l20 -2l-108 -508h-940zM633 2023h174l65 -274h-26z" />
<glyph unicode="&#xc9;" horiz-adv-x="1122" d="M-53 0l4 20q108 13 150 64t73 199l227 1073q33 144 12.5 196.5t-124.5 65.5l6 20h930l-97 -450l-22 -2l10 127q0 86 -13 141t-41.5 85t-66 41t-94.5 11h-321l-150 -706h180q90 0 139 43.5t105 179.5l43 123l23 -2l-158 -733l-23 -2l11 122q3 136 -28.5 180t-123.5 44 h-180l-166 -793h332q57 0 100 14t85 51t81 103t80 168l45 127l20 -2l-108 -508h-940zM768 1749l184 274h174l-329 -274h-29z" />
<glyph unicode="&#xca;" horiz-adv-x="1122" d="M-53 0l4 20q108 13 150 64t73 199l227 1073q33 144 12.5 196.5t-124.5 65.5l6 20h930l-97 -450l-22 -2l10 127q0 86 -13 141t-41.5 85t-66 41t-94.5 11h-321l-150 -706h180q90 0 139 43.5t105 179.5l43 123l23 -2l-158 -733l-23 -2l11 122q3 136 -28.5 180t-123.5 44 h-180l-166 -793h332q57 0 100 14t85 51t81 103t80 168l45 127l20 -2l-108 -508h-940zM567 1767l326 248h10l219 -248l-16 -16l-227 137l-301 -137z" />
<glyph unicode="&#xcb;" horiz-adv-x="1122" d="M-53 0l4 20q108 13 150 64t73 199l227 1073q33 144 12.5 196.5t-124.5 65.5l6 20h930l-97 -450l-22 -2l10 127q0 86 -13 141t-41.5 85t-66 41t-94.5 11h-321l-150 -706h180q90 0 139 43.5t105 179.5l43 123l23 -2l-158 -733l-23 -2l11 122q3 136 -28.5 180t-123.5 44 h-180l-166 -793h332q57 0 100 14t85 51t81 103t80 168l45 127l20 -2l-108 -508h-940zM635 1882q0 34 23.5 58t58.5 24t59.5 -24t24.5 -58q0 -35 -24.5 -59.5t-59.5 -24.5t-58.5 24.5t-23.5 59.5zM928 1882q0 34 23 58t57 24q35 0 60.5 -24t25.5 -58q0 -35 -25.5 -59.5 t-60.5 -24.5q-34 0 -57 24.5t-23 59.5z" />
<glyph unicode="&#xcc;" horiz-adv-x="624" d="M-43 0l4 20q108 13 150 64t73 199l228 1073q33 144 12 196.5t-125 65.5l6 20h461l-4 -20q-108 -13 -150 -63.5t-73 -198.5l-228 -1073q-23 -94 -21 -150t31 -80t101 -33l-4 -20h-461zM358 2023h174l66 -274h-27z" />
<glyph unicode="&#xcd;" horiz-adv-x="624" d="M-43 0l4 20q108 13 150 64t73 199l228 1073q33 144 12 196.5t-125 65.5l6 20h461l-4 -20q-108 -13 -150 -63.5t-73 -198.5l-228 -1073q-23 -94 -21 -150t31 -80t101 -33l-4 -20h-461zM494 1749l184 274h174l-330 -274h-28z" />
<glyph unicode="&#xce;" horiz-adv-x="624" d="M-43 0l4 20q108 13 150 64t73 199l228 1073q33 144 12 196.5t-125 65.5l6 20h461l-4 -20q-108 -13 -150 -63.5t-73 -198.5l-228 -1073q-23 -94 -21 -150t31 -80t101 -33l-4 -20h-461zM293 1767l325 248h11l219 -248l-17 -16l-227 137l-301 -137z" />
<glyph unicode="&#xcf;" horiz-adv-x="624" d="M-43 0l4 20q108 13 150 64t73 199l228 1073q33 144 12 196.5t-125 65.5l6 20h461l-4 -20q-108 -13 -150 -63.5t-73 -198.5l-228 -1073q-23 -94 -21 -150t31 -80t101 -33l-4 -20h-461zM360 1882q0 34 23 58t57 24q36 0 61 -24t25 -58q0 -35 -24.5 -59.5t-61.5 -24.5 q-34 0 -57 24.5t-23 59.5zM651 1882q0 34 24 58t58 24q35 0 59.5 -24t24.5 -58q0 -35 -24.5 -59.5t-59.5 -24.5q-34 0 -58 24.5t-24 59.5z" />
<glyph unicode="&#xd0;" horiz-adv-x="1138" d="M-53 0l4 20q108 13 150 64t73 199l113 528h-133l10 57h135l102 488q33 144 12.5 196.5t-124.5 65.5l6 20h326q259 0 399.5 -148t140.5 -415q0 -95 -16.5 -196.5t-52 -206.5t-86.5 -202.5t-125 -183t-162 -149t-203.5 -100.5t-243.5 -37h-325zM248 39h31q121 0 229 50 t187.5 134.5t143.5 193t103.5 228t60.5 236t21 221.5q0 235 -106.5 366t-303.5 131h-34l-156 -731h281l-13 -57h-280z" />
<glyph unicode="&#xd1;" horiz-adv-x="1314" d="M-47 0l6 20q34 8 61.5 23.5t48.5 34t39.5 53.5t31.5 66.5t28.5 90t26 105.5t28.5 131l178 832q33 144 12.5 196.5t-124.5 65.5l6 20h237l447 -1347l180 850q18 84 27.5 134.5t18 104.5t7.5 83.5t-5.5 59t-18.5 45.5t-34.5 28.5t-51.5 21.5l4 20h364l-6 -20 q-40 -10 -68 -23.5t-52 -41.5t-39.5 -56.5t-33.5 -87t-31 -114t-34 -154.5l-243 -1141h-27l-473 1427l-193 -903q-17 -78 -26.5 -130.5t-17.5 -106.5t-8 -89t4.5 -67.5t17 -52.5t33 -35t49.5 -23l-5 -20h-364zM631 1749q20 96 75.5 154.5t122.5 58.5q32 0 62.5 -14.5 t53.5 -35t45 -40.5t45.5 -34.5t45.5 -14.5q35 0 67.5 38t49.5 99h25q-18 -95 -69.5 -154t-111.5 -59q-39 0 -76.5 21.5t-62 47t-54.5 47t-56 21.5q-46 0 -83.5 -36.5t-56.5 -98.5h-22z" />
<glyph unicode="&#xd2;" horiz-adv-x="1116" d="M66 475q0 92 14.5 199t44.5 221.5t72.5 223.5t103.5 207.5t132 172t162 117t191 43.5q174 0 269.5 -131t95.5 -365q0 -88 -14 -192t-44 -218t-72 -224t-103 -209.5t-132 -175t-163 -120t-193 -44.5q-181 0 -272.5 131t-91.5 364zM199 430q0 -187 59 -295t180 -108 q92 0 175.5 62t145 163.5t112 227.5t81.5 259t47.5 252.5t16.5 212.5q0 194 -61.5 301t-178.5 107q-91 0 -174.5 -63.5t-145 -167t-111.5 -231.5t-81.5 -261t-48 -251.5t-16.5 -207.5zM604 2023h174l66 -274h-27z" />
<glyph unicode="&#xd3;" horiz-adv-x="1116" d="M66 475q0 92 14.5 199t44.5 221.5t72.5 223.5t103.5 207.5t132 172t162 117t191 43.5q174 0 269.5 -131t95.5 -365q0 -88 -14 -192t-44 -218t-72 -224t-103 -209.5t-132 -175t-163 -120t-193 -44.5q-181 0 -272.5 131t-91.5 364zM199 430q0 -187 59 -295t180 -108 q92 0 175.5 62t145 163.5t112 227.5t81.5 259t47.5 252.5t16.5 212.5q0 194 -61.5 301t-178.5 107q-91 0 -174.5 -63.5t-145 -167t-111.5 -231.5t-81.5 -261t-48 -251.5t-16.5 -207.5zM739 1749l185 274h174l-330 -274h-29z" />
<glyph unicode="&#xd4;" horiz-adv-x="1116" d="M66 475q0 92 14.5 199t44.5 221.5t72.5 223.5t103.5 207.5t132 172t162 117t191 43.5q174 0 269.5 -131t95.5 -365q0 -88 -14 -192t-44 -218t-72 -224t-103 -209.5t-132 -175t-163 -120t-193 -44.5q-181 0 -272.5 131t-91.5 364zM199 430q0 -187 59 -295t180 -108 q92 0 175.5 62t145 163.5t112 227.5t81.5 259t47.5 252.5t16.5 212.5q0 194 -61.5 301t-178.5 107q-91 0 -174.5 -63.5t-145 -167t-111.5 -231.5t-81.5 -261t-48 -251.5t-16.5 -207.5zM539 1767l325 248h10l220 -248l-17 -16l-227 137l-301 -137z" />
<glyph unicode="&#xd5;" horiz-adv-x="1116" d="M66 475q0 92 14.5 199t44.5 221.5t72.5 223.5t103.5 207.5t132 172t162 117t191 43.5q174 0 269.5 -131t95.5 -365q0 -88 -14 -192t-44 -218t-72 -224t-103 -209.5t-132 -175t-163 -120t-193 -44.5q-181 0 -272.5 131t-91.5 364zM199 430q0 -187 59 -295t180 -108 q92 0 175.5 62t145 163.5t112 227.5t81.5 259t47.5 252.5t16.5 212.5q0 194 -61.5 301t-178.5 107q-91 0 -174.5 -63.5t-145 -167t-111.5 -231.5t-81.5 -261t-48 -251.5t-16.5 -207.5zM535 1749q20 96 75.5 154.5t122.5 58.5q32 0 62.5 -14.5t53.5 -35t45 -40.5t45.5 -34.5 t45.5 -14.5q35 0 67.5 38t49.5 99h24q-18 -95 -69 -154t-111 -59q-39 0 -77 21.5t-62 47t-54.5 47t-56.5 21.5q-45 0 -82.5 -36.5t-56.5 -98.5h-22z" />
<glyph unicode="&#xd6;" horiz-adv-x="1116" d="M66 475q0 92 14.5 199t44.5 221.5t72.5 223.5t103.5 207.5t132 172t162 117t191 43.5q174 0 269.5 -131t95.5 -365q0 -88 -14 -192t-44 -218t-72 -224t-103 -209.5t-132 -175t-163 -120t-193 -44.5q-181 0 -272.5 131t-91.5 364zM199 430q0 -187 59 -295t180 -108 q92 0 175.5 62t145 163.5t112 227.5t81.5 259t47.5 252.5t16.5 212.5q0 194 -61.5 301t-178.5 107q-91 0 -174.5 -63.5t-145 -167t-111.5 -231.5t-81.5 -261t-48 -251.5t-16.5 -207.5zM604 1882q0 34 24 58t58 24q35 0 59.5 -24t24.5 -58q0 -35 -24.5 -59.5t-59.5 -24.5 q-34 0 -58 24.5t-24 59.5zM897 1882q0 34 23.5 58t58.5 24t59.5 -24t24.5 -58q0 -35 -24.5 -59.5t-59.5 -24.5t-58.5 24.5t-23.5 59.5z" />
<glyph unicode="&#xd7;" horiz-adv-x="872" d="M164 600l231 231l-231 230l43 43l231 -230l228 228l43 -43l-228 -228l228 -229l-43 -43l-228 229l-231 -231z" />
<glyph unicode="&#xd8;" horiz-adv-x="1116" d="M-90 0l184 244q-28 103 -28 231q0 92 14.5 199t44.5 221.5t72.5 223.5t103.5 207.5t132 172t162 117t191 43.5q184 0 279 -143l94 122h53l-125 -163q64 -125 64 -312q0 -88 -14 -192t-44 -218t-72 -224t-103 -209.5t-132 -175t-163 -120t-193 -44.5q-116 0 -196 56 t-121 159l-150 -195h-53zM199 430l2 -49l790 1036q-58 195 -215 195q-91 0 -174.5 -63.5t-145 -167t-111.5 -231.5t-81.5 -261t-48 -251.5t-16.5 -207.5zM205 317q16 -137 74 -213.5t159 -76.5q92 0 175.5 62t145 163.5t112 227.5t81.5 259t47.5 252.5t16.5 212.5 q0 90 -12 160z" />
<glyph unicode="&#xd9;" horiz-adv-x="1251" d="M211 567l166 789q23 94 20.5 149.5t-31 79.5t-100.5 33l4 20h463l-6 -20q-108 -13 -150 -63.5t-73 -198.5l-166 -789q-58 -274 -4.5 -385.5t244.5 -111.5q157 0 258 121.5t155 375.5l152 713q41 163 25 240.5t-109 99.5l4 18h362l-2 -18q-103 -22 -149.5 -95t-83.5 -245 l-152 -713q-63 -298 -193 -442.5t-335 -144.5q-222 0 -293.5 139t-5.5 448zM700 2023h174l66 -274h-27z" />
<glyph unicode="&#xda;" horiz-adv-x="1251" d="M211 567l166 789q23 94 20.5 149.5t-31 79.5t-100.5 33l4 20h463l-6 -20q-108 -13 -150 -63.5t-73 -198.5l-166 -789q-58 -274 -4.5 -385.5t244.5 -111.5q157 0 258 121.5t155 375.5l152 713q41 163 25 240.5t-109 99.5l4 18h362l-2 -18q-103 -22 -149.5 -95t-83.5 -245 l-152 -713q-63 -298 -193 -442.5t-335 -144.5q-222 0 -293.5 139t-5.5 448zM836 1749l184 274h174l-330 -274h-28z" />
<glyph unicode="&#xdb;" horiz-adv-x="1251" d="M211 567l166 789q23 94 20.5 149.5t-31 79.5t-100.5 33l4 20h463l-6 -20q-108 -13 -150 -63.5t-73 -198.5l-166 -789q-58 -274 -4.5 -385.5t244.5 -111.5q157 0 258 121.5t155 375.5l152 713q41 163 25 240.5t-109 99.5l4 18h362l-2 -18q-103 -22 -149.5 -95t-83.5 -245 l-152 -713q-63 -298 -193 -442.5t-335 -144.5q-222 0 -293.5 139t-5.5 448zM635 1767l326 248h10l219 -248l-16 -16l-228 137l-301 -137z" />
<glyph unicode="&#xdc;" horiz-adv-x="1251" d="M211 567l166 789q23 94 20.5 149.5t-31 79.5t-100.5 33l4 20h463l-6 -20q-108 -13 -150 -63.5t-73 -198.5l-166 -789q-58 -274 -4.5 -385.5t244.5 -111.5q157 0 258 121.5t155 375.5l152 713q41 163 25 240.5t-109 99.5l4 18h362l-2 -18q-103 -22 -149.5 -95t-83.5 -245 l-152 -713q-63 -298 -193 -442.5t-335 -144.5q-222 0 -293.5 139t-5.5 448zM702 1882q0 34 23 58t57 24q35 0 60.5 -24t25.5 -58q0 -35 -25.5 -59.5t-60.5 -24.5q-34 0 -57 24.5t-23 59.5zM993 1882q0 34 24 58t58 24q35 0 59.5 -24t24.5 -58q0 -35 -24.5 -59.5t-59.5 -24.5 q-34 0 -58 24.5t-24 59.5z" />
<glyph unicode="&#xdd;" horiz-adv-x="1105" d="M203 0l4 20q108 13 150 64t73 199l117 559l-105 487q-29 138 -70.5 205t-133.5 86l4 18h479l-4 -18q-89 -12 -128.5 -45.5t-39.5 -93.5q0 -37 26 -160l89 -410l264 412q106 169 106 223q0 31 -29 49t-94 25l2 18h398l-4 -18q-111 -35 -178 -100t-162 -213l-289 -451 l-121 -573q-23 -94 -21 -150t31 -80t101 -33l-4 -20h-461zM750 1749l184 274h174l-330 -274h-28z" />
<glyph unicode="&#xde;" horiz-adv-x="1079" d="M-43 0l4 20q108 13 150 64t73 199l228 1073q33 144 12 196.5t-125 65.5l6 20h461l-4 -20q-108 -13 -150 -63.5t-73 -198.5l-7 -27q273 10 414 -85t141 -283q0 -194 -99.5 -337t-271 -215t-392.5 -71l-13 -55q-23 -94 -21 -150t31 -80t101 -33l-4 -20h-461zM332 377 q187 5 327.5 84t212.5 211.5t72 298.5q0 162 -105.5 245t-314.5 74z" />
<glyph unicode="&#xdf;" horiz-adv-x="1304" d="M-276 -420l36 168q78 -37 139 -39.5t109 27t85.5 99t66.5 168t55 241.5l172 860h-100l4 16l108 43q72 243 223.5 390t346.5 147q147 0 223 -58t76 -161q0 -110 -62.5 -192.5t-185.5 -164.5q-42 -30 -57.5 -42t-48.5 -40t-46.5 -47t-26 -47.5t-12.5 -56.5q0 -24 9.5 -49.5 t21 -45t36.5 -48t40 -44t49.5 -49t48.5 -47.5q79 -79 122.5 -149.5t43.5 -155.5q0 -141 -106.5 -232t-266.5 -91t-282 73l73 350l21 3q0 -86 4.5 -142.5t16.5 -105t34.5 -75.5t58 -41.5t87.5 -14.5q108 0 170.5 68.5t62.5 164.5q0 74 -41.5 138t-116.5 137q-10 9 -40.5 38 t-42 40.5t-35.5 36.5t-34.5 41t-24 38.5t-18.5 43t-5 42.5q0 46 18.5 90t54.5 84t70.5 70.5t85.5 68.5q207 154 207 336q0 89 -51.5 142t-147.5 53q-156 0 -267 -127.5t-163 -370.5l-186 -880q-141 -658 -612 -701z" />
<glyph unicode="&#xe0;" horiz-adv-x="1044" d="M47 268q0 104 26 227.5t78.5 246.5t122.5 224t167 164.5t202 63.5q102 0 172 -70l98 74l21 -20l-168 -793q-37 -169 -37 -247.5t41 -82.5q47 -7 91.5 50t96.5 212l19 -8q-46 -172 -114.5 -256t-145.5 -76q-91 7 -106 112.5t30 297.5l66 311q-119 -337 -249 -529 t-247 -192q-45 0 -78.5 26.5t-51.5 70.5t-26 92.5t-8 101.5zM180 311q0 -211 92 -211q94 0 234.5 235t251.5 613l33 156q-55 55 -132 55q-89 0 -169 -61.5t-135 -157t-96 -210.5t-60 -223.5t-19 -195.5zM528 1700h162l107 -371h-23z" />
<glyph unicode="&#xe1;" horiz-adv-x="1044" d="M47 268q0 104 26 227.5t78.5 246.5t122.5 224t167 164.5t202 63.5q102 0 172 -70l98 74l21 -20l-168 -793q-37 -169 -37 -247.5t41 -82.5q47 -7 91.5 50t96.5 212l19 -8q-46 -172 -114.5 -256t-145.5 -76q-91 7 -106 112.5t30 297.5l66 311q-119 -337 -249 -529 t-247 -192q-45 0 -78.5 26.5t-51.5 70.5t-26 92.5t-8 101.5zM180 311q0 -211 92 -211q94 0 234.5 235t251.5 613l33 156q-55 55 -132 55q-89 0 -169 -61.5t-135 -157t-96 -210.5t-60 -223.5t-19 -195.5zM664 1329l182 371h162l-324 -371h-20z" />
<glyph unicode="&#xe2;" horiz-adv-x="1044" d="M47 268q0 104 26 227.5t78.5 246.5t122.5 224t167 164.5t202 63.5q102 0 172 -70l98 74l21 -20l-168 -793q-37 -169 -37 -247.5t41 -82.5q47 -7 91.5 50t96.5 212l19 -8q-46 -172 -114.5 -256t-145.5 -76q-91 7 -106 112.5t30 297.5l66 311q-119 -337 -249 -529 t-247 -192q-45 0 -78.5 26.5t-51.5 70.5t-26 92.5t-8 101.5zM180 311q0 -211 92 -211q94 0 234.5 235t251.5 613l33 156q-55 55 -132 55q-89 0 -169 -61.5t-135 -157t-96 -210.5t-60 -223.5t-19 -195.5zM438 1348l361 381h10l203 -381l-21 -19l-215 262l-325 -262z" />
<glyph unicode="&#xe3;" horiz-adv-x="1044" d="M47 268q0 104 26 227.5t78.5 246.5t122.5 224t167 164.5t202 63.5q102 0 172 -70l98 74l21 -20l-168 -793q-37 -169 -37 -247.5t41 -82.5q47 -7 91.5 50t96.5 212l19 -8q-46 -172 -114.5 -256t-145.5 -76q-91 7 -106 112.5t30 297.5l66 311q-119 -337 -249 -529 t-247 -192q-45 0 -78.5 26.5t-51.5 70.5t-26 92.5t-8 101.5zM180 311q0 -211 92 -211q94 0 234.5 235t251.5 613l33 156q-55 55 -132 55q-89 0 -169 -61.5t-135 -157t-96 -210.5t-60 -223.5t-19 -195.5zM473 1405q20 95 76 154t123 59q39 0 77 -21.5t62.5 -47t55 -47 t57.5 -21.5q35 0 66 36.5t50 98.5h25q-18 -95 -69 -154t-111 -59q-32 0 -62.5 14.5t-53.5 35t-44.5 40.5t-44.5 34.5t-45 14.5q-45 0 -81 -37t-58 -100h-23z" />
<glyph unicode="&#xe4;" horiz-adv-x="1044" d="M47 268q0 104 26 227.5t78.5 246.5t122.5 224t167 164.5t202 63.5q102 0 172 -70l98 74l21 -20l-168 -793q-37 -169 -37 -247.5t41 -82.5q47 -7 91.5 50t96.5 212l19 -8q-46 -172 -114.5 -256t-145.5 -76q-91 7 -106 112.5t30 297.5l66 311q-119 -337 -249 -529 t-247 -192q-45 0 -78.5 26.5t-51.5 70.5t-26 92.5t-8 101.5zM180 311q0 -211 92 -211q94 0 234.5 235t251.5 613l33 156q-55 55 -132 55q-89 0 -169 -61.5t-135 -157t-96 -210.5t-60 -223.5t-19 -195.5zM481 1516q0 38 25.5 64t62.5 26q40 0 67.5 -26t27.5 -64t-27.5 -65.5 t-67.5 -27.5q-37 0 -62.5 27.5t-25.5 65.5zM825 1516q0 38 25.5 64t62.5 26q40 0 67.5 -26t27.5 -64t-27.5 -65.5t-67.5 -27.5q-37 0 -62.5 27.5t-25.5 65.5z" />
<glyph unicode="&#xe5;" horiz-adv-x="1044" d="M47 268q0 104 26 227.5t78.5 246.5t122.5 224t167 164.5t202 63.5q102 0 172 -70l98 74l21 -20l-168 -793q-37 -169 -37 -247.5t41 -82.5q47 -7 91.5 50t96.5 212l19 -8q-46 -172 -114.5 -256t-145.5 -76q-91 7 -106 112.5t30 297.5l66 311q-119 -337 -249 -529 t-247 -192q-45 0 -78.5 26.5t-51.5 70.5t-26 92.5t-8 101.5zM180 311q0 -211 92 -211q94 0 234.5 235t251.5 613l33 156q-55 55 -132 55q-89 0 -169 -61.5t-135 -157t-96 -210.5t-60 -223.5t-19 -195.5zM606 1495q0 73 50 123.5t124 50.5q72 0 122 -50.5t50 -123.5 q0 -72 -50 -122t-122 -50q-73 0 -123.5 50t-50.5 122zM659 1495q0 -51 35 -87t86 -36t85 36t34 87t-34 87t-85 36t-86 -36t-35 -87z" />
<glyph unicode="&#xe6;" horiz-adv-x="1470" d="M43 240q0 90 19.5 195t55.5 211.5t90.5 205t119.5 174.5t149 122t172 46q101 0 172 -68l76 72l21 -20l-33 -170q72 91 160.5 140.5t181.5 49.5t142.5 -57t49.5 -142q0 -350 -612 -481q-12 -80 -12 -149q0 -145 50 -226.5t144 -81.5q118 0 218.5 107t150.5 295h31 q-46 -217 -166 -350t-275 -133q-136 0 -216.5 92t-80.5 276q0 116 37 277q-114 -304 -238 -476t-233 -172q-84 0 -129 74t-45 189zM178 299q0 -49 8.5 -91.5t32 -75t60.5 -32.5q95 0 234 234.5t253 615.5l33 154q-55 55 -133 55q-88 0 -168 -62t-137 -159t-99.5 -213 t-63 -227t-20.5 -199zM811 551q212 48 355 186.5t143 302.5q0 53 -23.5 86t-73.5 33q-126 0 -233.5 -163.5t-167.5 -444.5z" />
<glyph unicode="&#xe7;" horiz-adv-x="911" d="M70 360q0 84 15.5 176.5t45 187t78 179.5t109.5 151t144 105t177 39q144 0 240 -84l-80 -328l-17 2l2 144q9 219 -151 219q-81 0 -152.5 -56t-119.5 -143t-83 -192t-51 -203t-16 -176q0 -144 47.5 -228.5t140.5 -84.5q109 0 203.5 109.5t145.5 293.5l28 -2 q-48 -224 -159 -355t-261 -134l-43 -86q97 -6 148 -37.5t51 -85.5q0 -71 -64 -114.5t-153 -43.5q-68 0 -127 28.5t-94 86.5l26 22q28 -37 78 -58.5t101 -21.5t92 28t41 75q0 42 -51 68.5t-152 27.5l123 111q-127 6 -194.5 106t-67.5 274z" />
<glyph unicode="&#xe8;" horiz-adv-x="884" d="M68 360q0 82 17 174t48.5 186t81.5 180t111.5 152.5t143 106t171.5 39.5q93 0 143 -57t50 -142q0 -347 -613 -479q-12 -83 -12 -149q0 -147 50 -228.5t144 -81.5q118 0 218.5 107t150.5 295h31q-46 -217 -166 -350t-275 -133q-136 0 -215 98.5t-79 281.5zM227 553 q212 48 355 186t143 301q0 53 -24 86t-74 33q-76 0 -145 -56.5t-118 -148t-83.5 -193.5t-53.5 -208zM442 1700h162l107 -371h-23z" />
<glyph unicode="&#xe9;" horiz-adv-x="884" d="M68 360q0 82 17 174t48.5 186t81.5 180t111.5 152.5t143 106t171.5 39.5q93 0 143 -57t50 -142q0 -347 -613 -479q-12 -83 -12 -149q0 -147 50 -228.5t144 -81.5q118 0 218.5 107t150.5 295h31q-46 -217 -166 -350t-275 -133q-136 0 -215 98.5t-79 281.5zM227 553 q212 48 355 186t143 301q0 53 -24 86t-74 33q-76 0 -145 -56.5t-118 -148t-83.5 -193.5t-53.5 -208zM578 1329l182 371h162l-324 -371h-20z" />
<glyph unicode="&#xea;" horiz-adv-x="884" d="M68 360q0 82 17 174t48.5 186t81.5 180t111.5 152.5t143 106t171.5 39.5q93 0 143 -57t50 -142q0 -347 -613 -479q-12 -83 -12 -149q0 -147 50 -228.5t144 -81.5q118 0 218.5 107t150.5 295h31q-46 -217 -166 -350t-275 -133q-136 0 -215 98.5t-79 281.5zM227 553 q212 48 355 186t143 301q0 53 -24 86t-74 33q-76 0 -145 -56.5t-118 -148t-83.5 -193.5t-53.5 -208zM354 1348l361 381h10l203 -381l-21 -19l-215 262l-325 -262z" />
<glyph unicode="&#xeb;" horiz-adv-x="884" d="M68 360q0 82 17 174t48.5 186t81.5 180t111.5 152.5t143 106t171.5 39.5q93 0 143 -57t50 -142q0 -347 -613 -479q-12 -83 -12 -149q0 -147 50 -228.5t144 -81.5q118 0 218.5 107t150.5 295h31q-46 -217 -166 -350t-275 -133q-136 0 -215 98.5t-79 281.5zM227 553 q212 48 355 186t143 301q0 53 -24 86t-74 33q-76 0 -145 -56.5t-118 -148t-83.5 -193.5t-53.5 -208zM395 1516q0 38 26 64t64 26q39 0 66 -26t27 -64t-27.5 -65.5t-65.5 -27.5t-64 27t-26 66zM739 1516q0 38 26 64t64 26q39 0 66 -26t27 -64t-27.5 -65.5t-65.5 -27.5t-64 27 t-26 66z" />
<glyph unicode="&#xec;" horiz-adv-x="694" d="M125 866q103 332 258 332q52 0 81 -29.5t34 -87t-3.5 -128t-31.5 -165.5l-94 -403q-38 -182 -41 -235q-6 -95 43 -95q43 0 86 55.5t94 204.5l18 -6q-46 -167 -111.5 -249.5t-140.5 -82.5q-42 0 -68 20.5t-36.5 54.5t-8 88.5t12.5 111.5t29 135l94 401q39 166 39 248 t-45 82q-47 0 -93.5 -56t-97.5 -204zM268 1700h162l107 -371h-23z" />
<glyph unicode="&#xed;" horiz-adv-x="694" d="M125 866q103 332 258 332q52 0 81 -29.5t34 -87t-3.5 -128t-31.5 -165.5l-94 -403q-38 -182 -41 -235q-6 -95 43 -95q43 0 86 55.5t94 204.5l18 -6q-46 -167 -111.5 -249.5t-140.5 -82.5q-42 0 -68 20.5t-36.5 54.5t-8 88.5t12.5 111.5t29 135l94 401q39 166 39 248 t-45 82q-47 0 -93.5 -56t-97.5 -204zM406 1329l182 371h162l-324 -371h-20z" />
<glyph unicode="&#xee;" horiz-adv-x="694" d="M125 866q103 332 258 332q52 0 81 -29.5t34 -87t-3.5 -128t-31.5 -165.5l-94 -403q-38 -182 -41 -235q-6 -95 43 -95q43 0 86 55.5t94 204.5l18 -6q-46 -167 -111.5 -249.5t-140.5 -82.5q-42 0 -68 20.5t-36.5 54.5t-8 88.5t12.5 111.5t29 135l94 401q39 166 39 248 t-45 82q-47 0 -93.5 -56t-97.5 -204zM180 1348l361 381h10l203 -381l-21 -19l-215 262l-325 -262z" />
<glyph unicode="&#xef;" horiz-adv-x="694" d="M125 866q103 332 258 332q52 0 81 -29.5t34 -87t-3.5 -128t-31.5 -165.5l-94 -403q-38 -182 -41 -235q-6 -95 43 -95q43 0 86 55.5t94 204.5l18 -6q-46 -167 -111.5 -249.5t-140.5 -82.5q-42 0 -68 20.5t-36.5 54.5t-8 88.5t12.5 111.5t29 135l94 401q39 166 39 248 t-45 82q-47 0 -93.5 -56t-97.5 -204zM221 1516q0 38 26.5 64t63.5 26q40 0 67.5 -26t27.5 -64t-27.5 -65.5t-67.5 -27.5q-37 0 -63.5 27.5t-26.5 65.5zM565 1516q0 38 26.5 64t63.5 26q40 0 67.5 -26t27.5 -64t-27.5 -65.5t-67.5 -27.5q-37 0 -63.5 27.5t-26.5 65.5z" />
<glyph unicode="&#xf0;" horiz-adv-x="882" d="M45 598q58 275 199 437.5t315 162.5q139 0 205 -111q-3 185 -57 324l-271 -111l-8 43l260 107q-79 161 -223 227l16 25q186 -61 289 -219l236 96l8 -41l-223 -92q168 -298 57 -817q-65 -305 -209.5 -477t-327.5 -172q-185 0 -257.5 162.5t-8.5 455.5zM150 310 q-2 -127 42 -205t130 -78q65 0 124 44t106 123t84 180.5t64 223.5q55 256 17.5 404.5t-158.5 148.5q-118 0 -218.5 -148t-156.5 -405q-32 -161 -34 -288z" />
<glyph unicode="&#xf1;" horiz-adv-x="1148" d="M68 866q53 174 119 254.5t143 77.5q91 -3 107 -109t-31 -301l-7 -24q89 209 203 321.5t227 112.5q63 0 104.5 -26t60 -68t21.5 -102t-7 -121.5t-29 -132.5l-96 -363q-12 -45 -21 -82t-16.5 -76t-9 -68.5t1.5 -54t14.5 -37t30.5 -12.5q43 0 86 57.5t92 202.5l18 -6 q-44 -165 -108.5 -247t-139.5 -82q-41 0 -67.5 17.5t-37 51.5t-13 71t5.5 88t17 90t22 89l96 358q100 373 -82 373q-56 0 -115 -39.5t-117 -115t-110.5 -200t-89.5 -280.5l-104 -483h-123l168 788q19 91 28 148.5t10 100t-9 61.5t-31 20q-47 3 -93.5 -53t-99.5 -207z M508 1405q20 95 76 154t123 59q39 0 76.5 -21.5t62 -47t55 -47t57.5 -21.5q35 0 66.5 36.5t50.5 98.5h25q-18 -95 -69 -154t-111 -59q-32 0 -62.5 14.5t-53.5 35t-44.5 40.5t-44.5 34.5t-45 14.5q-45 0 -81.5 -37t-58.5 -100h-22z" />
<glyph unicode="&#xf2;" horiz-adv-x="985" d="M96 598q60 280 199.5 440t325.5 160q187 0 258.5 -163t11.5 -449q-63 -291 -205 -448.5t-324 -157.5t-255.5 161.5t-10.5 456.5zM202 308q-3 -129 40.5 -209.5t130.5 -80.5q121 0 221 157t154 411q34 168 35 295.5t-43 202.5t-128 75q-119 0 -219.5 -151.5t-156.5 -409.5 q-31 -161 -34 -290zM455 1700h161l107 -371h-23z" />
<glyph unicode="&#xf3;" horiz-adv-x="985" d="M96 598q60 280 199.5 440t325.5 160q187 0 258.5 -163t11.5 -449q-63 -291 -205 -448.5t-324 -157.5t-255.5 161.5t-10.5 456.5zM202 308q-3 -129 40.5 -209.5t130.5 -80.5q121 0 221 157t154 411q34 168 35 295.5t-43 202.5t-128 75q-119 0 -219.5 -151.5t-156.5 -409.5 q-31 -161 -34 -290zM590 1329l182 371h162l-324 -371h-20z" />
<glyph unicode="&#xf4;" horiz-adv-x="985" d="M96 598q60 280 199.5 440t325.5 160q187 0 258.5 -163t11.5 -449q-63 -291 -205 -448.5t-324 -157.5t-255.5 161.5t-10.5 456.5zM202 308q-3 -129 40.5 -209.5t130.5 -80.5q121 0 221 157t154 411q34 168 35 295.5t-43 202.5t-128 75q-119 0 -219.5 -151.5t-156.5 -409.5 q-31 -161 -34 -290zM367 1348l360 381h10l203 -381l-20 -19l-215 262l-326 -262z" />
<glyph unicode="&#xf5;" horiz-adv-x="985" d="M96 598q60 280 199.5 440t325.5 160q187 0 258.5 -163t11.5 -449q-63 -291 -205 -448.5t-324 -157.5t-255.5 161.5t-10.5 456.5zM202 308q-3 -129 40.5 -209.5t130.5 -80.5q121 0 221 157t154 411q34 168 35 295.5t-43 202.5t-128 75q-119 0 -219.5 -151.5t-156.5 -409.5 q-31 -161 -34 -290zM401 1405q20 95 76 154t123 59q39 0 77 -21.5t62.5 -47t55 -47t57.5 -21.5q35 0 66.5 36.5t50.5 98.5h24q-18 -95 -69 -154t-111 -59q-32 0 -62.5 14.5t-53.5 35t-44.5 40.5t-44.5 34.5t-45 14.5q-45 0 -81 -37t-58 -100h-23z" />
<glyph unicode="&#xf6;" horiz-adv-x="985" d="M96 598q60 280 199.5 440t325.5 160q187 0 258.5 -163t11.5 -449q-63 -291 -205 -448.5t-324 -157.5t-255.5 161.5t-10.5 456.5zM202 308q-3 -129 40.5 -209.5t130.5 -80.5q121 0 221 157t154 411q34 168 35 295.5t-43 202.5t-128 75q-119 0 -219.5 -151.5t-156.5 -409.5 q-31 -161 -34 -290zM408 1516q0 38 26 64t64 26t65 -26t27 -64t-27 -65.5t-65 -27.5t-64 27t-26 66zM752 1516q0 38 26 64t64 26t65 -26t27 -64t-27 -65.5t-65 -27.5t-64 27t-26 66z" />
<glyph unicode="&#xf7;" horiz-adv-x="1079" d="M164 801v61h751v-61h-751zM465 504q0 31 21.5 52.5t52.5 21.5q32 0 53.5 -21.5t21.5 -52.5q0 -32 -21.5 -54t-53.5 -22q-31 0 -52.5 22t-21.5 54zM465 1161q0 31 21.5 52.5t52.5 21.5q32 0 53.5 -21.5t21.5 -52.5q0 -32 -21.5 -54t-53.5 -22q-31 0 -52.5 22t-21.5 54z " />
<glyph unicode="&#xf8;" horiz-adv-x="985" d="M-10 0l116 143q-74 163 -10 455q60 280 199.5 440t325.5 160q162 0 237 -123l84 103h53l-116 -144q71 -160 12 -448q-63 -291 -205 -448.5t-324 -157.5q-159 0 -235 122l-82 -102h-55zM203 264l573 709q-29 186 -164 186q-119 0 -219.5 -151.5t-156.5 -409.5 q-40 -180 -33 -334zM209 205q29 -187 164 -187q121 0 221 157t154 411q40 186 34 327z" />
<glyph unicode="&#xf9;" horiz-adv-x="1140" d="M68 866q100 332 251 332q37 0 62 -13.5t37 -41t16.5 -61.5t-1.5 -84t-15 -98.5t-25 -113.5l-92 -368q-91 -361 86 -361q108 0 229 188.5t199 520.5l86 410h125l-168 -789q-39 -179 -38.5 -255.5t42.5 -76.5q47 0 93.5 56.5t97.5 205.5l18 -8q-99 -329 -256 -329 q-36 0 -60 13.5t-37 40.5t-17.5 61t-1 82t11.5 96.5t22 111.5l12 55q-89 -220 -199 -340t-214 -120q-73 0 -117.5 36t-58 100.5t-7.5 141.5t29 170l90 360q15 61 24.5 105.5t16 83t7 64t-4 44t-14.5 27t-27 8.5q-44 0 -88 -58t-96 -204zM492 1700h161l107 -371h-23z" />
<glyph unicode="&#xfa;" horiz-adv-x="1140" d="M68 866q100 332 251 332q37 0 62 -13.5t37 -41t16.5 -61.5t-1.5 -84t-15 -98.5t-25 -113.5l-92 -368q-91 -361 86 -361q108 0 229 188.5t199 520.5l86 410h125l-168 -789q-39 -179 -38.5 -255.5t42.5 -76.5q47 0 93.5 56.5t97.5 205.5l18 -8q-99 -329 -256 -329 q-36 0 -60 13.5t-37 40.5t-17.5 61t-1 82t11.5 96.5t22 111.5l12 55q-89 -220 -199 -340t-214 -120q-73 0 -117.5 36t-58 100.5t-7.5 141.5t29 170l90 360q15 61 24.5 105.5t16 83t7 64t-4 44t-14.5 27t-27 8.5q-44 0 -88 -58t-96 -204zM627 1329l182 371h162l-324 -371h-20 z" />
<glyph unicode="&#xfb;" horiz-adv-x="1140" d="M68 866q100 332 251 332q37 0 62 -13.5t37 -41t16.5 -61.5t-1.5 -84t-15 -98.5t-25 -113.5l-92 -368q-91 -361 86 -361q108 0 229 188.5t199 520.5l86 410h125l-168 -789q-39 -179 -38.5 -255.5t42.5 -76.5q47 0 93.5 56.5t97.5 205.5l18 -8q-99 -329 -256 -329 q-36 0 -60 13.5t-37 40.5t-17.5 61t-1 82t11.5 96.5t22 111.5l12 55q-89 -220 -199 -340t-214 -120q-73 0 -117.5 36t-58 100.5t-7.5 141.5t29 170l90 360q15 61 24.5 105.5t16 83t7 64t-4 44t-14.5 27t-27 8.5q-44 0 -88 -58t-96 -204zM403 1348l361 381h10l203 -381 l-21 -19l-215 262l-325 -262z" />
<glyph unicode="&#xfc;" horiz-adv-x="1140" d="M68 866q100 332 251 332q37 0 62 -13.5t37 -41t16.5 -61.5t-1.5 -84t-15 -98.5t-25 -113.5l-92 -368q-91 -361 86 -361q108 0 229 188.5t199 520.5l86 410h125l-168 -789q-39 -179 -38.5 -255.5t42.5 -76.5q47 0 93.5 56.5t97.5 205.5l18 -8q-99 -329 -256 -329 q-36 0 -60 13.5t-37 40.5t-17.5 61t-1 82t11.5 96.5t22 111.5l12 55q-89 -220 -199 -340t-214 -120q-73 0 -117.5 36t-58 100.5t-7.5 141.5t29 170l90 360q15 61 24.5 105.5t16 83t7 64t-4 44t-14.5 27t-27 8.5q-44 0 -88 -58t-96 -204zM444 1516q0 38 26.5 64t64.5 26 t65 -26t27 -64t-27 -65.5t-65 -27.5t-64.5 27.5t-26.5 65.5zM788 1516q0 38 26.5 64t64.5 26t65 -26t27 -64t-27 -65.5t-65 -27.5t-64.5 27.5t-26.5 65.5z" />
<glyph unicode="&#xfd;" horiz-adv-x="1191" d="M-178 -420l35 176q127 -20 272.5 33t288.5 162q0 81 1.5 191t3 190.5t2 178.5t-2.5 169t-8.5 146.5t-17.5 126.5t-30 93.5t-44.5 63t-61.5 20.5q-53 0 -97.5 -41.5t-74.5 -113.5l-16 10q37 102 104.5 158.5t155.5 56.5q60 0 104.5 -34.5t71 -91t41.5 -142.5t20 -172.5 t2.5 -199.5t-7.5 -206.5t-13 -207.5q-4 -59 -6 -87q199 188 325.5 428t126.5 453q0 199 -133 199q-59 0 -110.5 -41.5t-87.5 -120.5l-19 12q46 100 120.5 156.5t162.5 56.5t140 -57t52 -158q0 -129 -59.5 -278.5t-158.5 -291t-231.5 -279t-275.5 -248t-293 -192.5t-282 -118 zM676 1329l182 371h162l-324 -371h-20z" />
<glyph unicode="&#xfe;" horiz-adv-x="1042" d="M14 -410l379 1721q20 88 29.5 147t10 100.5t-10 60.5t-31.5 21q-47 3 -94 -53t-100 -207l-19 9q53 173 119 253.5t145 77.5q92 -3 108 -108.5t-30 -300.5l-178 -805q118 324 243.5 506t239.5 182q84 0 129 -75.5t45 -188.5q0 -83 -19 -184t-54 -208t-88.5 -207t-118 -179 t-148.5 -127t-174 -48q-91 0 -159 56l-99 -443h-125zM246 68q56 -56 133 -56q75 0 144.5 45.5t121.5 119.5t94.5 166.5t69 189.5t41 184.5t14.5 154.5q0 47 -8 89t-32 76t-60 34q-92 0 -227 -221.5t-248 -583.5z" />
<glyph unicode="&#xff;" horiz-adv-x="1191" d="M-178 -420l35 176q127 -20 272.5 33t288.5 162q0 81 1.5 191t3 190.5t2 178.5t-2.5 169t-8.5 146.5t-17.5 126.5t-30 93.5t-44.5 63t-61.5 20.5q-53 0 -97.5 -41.5t-74.5 -113.5l-16 10q37 102 104.5 158.5t155.5 56.5q60 0 104.5 -34.5t71 -91t41.5 -142.5t20 -172.5 t2.5 -199.5t-7.5 -206.5t-13 -207.5q-4 -59 -6 -87q199 188 325.5 428t126.5 453q0 199 -133 199q-59 0 -110.5 -41.5t-87.5 -120.5l-19 12q46 100 120.5 156.5t162.5 56.5t140 -57t52 -158q0 -129 -59.5 -278.5t-158.5 -291t-231.5 -279t-275.5 -248t-293 -192.5t-282 -118 zM494 1516q0 38 25.5 64t62.5 26q40 0 67 -26t27 -64t-27 -65.5t-67 -27.5q-37 0 -62.5 27.5t-25.5 65.5zM838 1516q0 38 25.5 64t62.5 26q40 0 67 -26t27 -64t-27 -65.5t-67 -27.5q-37 0 -62.5 27.5t-25.5 65.5z" />
<glyph unicode="&#x152;" horiz-adv-x="1812" d="M68 485q0 93 14 198.5t44 219.5t72 222t102.5 205t131.5 170t163 116t193 43q251 0 322 -273l53 252h752l-96 -450l-23 -2l10 127q0 86 -13 141t-41.5 85t-66 41t-94.5 11h-321l-150 -706h180q90 0 139 43.5t105 179.5l43 123l23 -2l-158 -733l-22 -2l10 122 q3 136 -28.5 180t-123.5 44h-180l-166 -793h332q57 0 100 14t85 51t81 103t80 168l45 127l21 -2l-109 -508h-762l55 256q-187 -276 -438 -276q-179 0 -271.5 133t-92.5 372zM201 430q0 -189 58.5 -296t180.5 -107q79 0 152 47.5t130 127t106 183t84 215.5t59.5 224.5 t36.5 210t12 171.5q0 193 -63 299.5t-179 106.5q-91 0 -174.5 -63.5t-145 -167t-111.5 -231.5t-81.5 -261.5t-48 -252t-16.5 -206.5z" />
<glyph unicode="&#x153;" horiz-adv-x="1564" d="M96 598q60 280 199.5 440t325.5 160q113 0 184 -61.5t98 -178.5q76 115 174.5 177.5t204.5 62.5q150 0 226 -110.5t38 -290.5l-2 -13h-598q-23 -61 -49 -174q-54 -248 -5.5 -395t191.5 -147q111 0 214.5 107t154.5 288h31q-44 -213 -168 -348t-277 -135q-113 0 -188 61.5 t-105 173.5q-74 -116 -172.5 -175.5t-210.5 -59.5q-182 0 -255.5 161.5t-10.5 456.5zM202 308q-3 -129 40.5 -209.5t130.5 -80.5q121 0 221 157t154 411q34 168 35 295.5t-43 202.5t-128 75q-119 0 -219.5 -151.5t-156.5 -409.5q-31 -161 -34 -290zM963 829h446l41 187 q-6 62 -49.5 98.5t-104.5 36.5q-103 0 -187.5 -85.5t-145.5 -236.5z" />
<glyph unicode="&#x178;" horiz-adv-x="1105" d="M203 0l4 20q108 13 150 64t73 199l117 559l-105 487q-29 138 -70.5 205t-133.5 86l4 18h479l-4 -18q-89 -12 -128.5 -45.5t-39.5 -93.5q0 -37 26 -160l89 -410l264 412q106 169 106 223q0 31 -29 49t-94 25l2 18h398l-4 -18q-111 -35 -178 -100t-162 -213l-289 -451 l-121 -573q-23 -94 -21 -150t31 -80t101 -33l-4 -20h-461zM614 1882q0 34 24 58t58 24q35 0 59.5 -24t24.5 -58q0 -35 -24.5 -59.5t-59.5 -24.5q-34 0 -58 24.5t-24 59.5zM907 1882q0 34 23.5 58t58.5 24t59.5 -24t24.5 -58q0 -35 -24.5 -59.5t-59.5 -24.5t-58.5 24.5 t-23.5 59.5z" />
<glyph unicode="&#x2c6;" horiz-adv-x="727" d="M238 1348l360 381h10l203 -381l-20 -19l-216 262l-325 -262z" />
<glyph unicode="&#x2dc;" horiz-adv-x="700" d="M250 1405q20 95 76 154t123 59q39 0 76.5 -21.5t62 -47t55 -47t57.5 -21.5q35 0 66.5 36.5t50.5 98.5h25q-18 -95 -69 -154t-111 -59q-32 0 -62.5 14.5t-53.5 35t-44.5 40.5t-44.5 34.5t-45 14.5q-45 0 -81.5 -37t-58.5 -100h-22z" />
<glyph unicode="&#x2000;" horiz-adv-x="1042" />
<glyph unicode="&#x2001;" horiz-adv-x="2085" />
<glyph unicode="&#x2002;" horiz-adv-x="1042" />
<glyph unicode="&#x2003;" horiz-adv-x="2085" />
<glyph unicode="&#x2004;" horiz-adv-x="695" />
<glyph unicode="&#x2005;" horiz-adv-x="521" />
<glyph unicode="&#x2006;" horiz-adv-x="347" />
<glyph unicode="&#x2007;" horiz-adv-x="347" />
<glyph unicode="&#x2008;" horiz-adv-x="260" />
<glyph unicode="&#x2009;" horiz-adv-x="417" />
<glyph unicode="&#x200a;" horiz-adv-x="115" />
<glyph unicode="&#x2010;" horiz-adv-x="622" d="M109 602l18 78h410l-19 -78h-409z" />
<glyph unicode="&#x2011;" horiz-adv-x="622" d="M109 602l18 78h410l-19 -78h-409z" />
<glyph unicode="&#x2012;" horiz-adv-x="622" d="M109 602l18 78h410l-19 -78h-409z" />
<glyph unicode="&#x2013;" horiz-adv-x="827" d="M109 602l18 78h614l-18 -78h-614z" />
<glyph unicode="&#x2014;" horiz-adv-x="1114" d="M109 602l18 78h901l-18 -78h-901z" />
<glyph unicode="&#x2018;" horiz-adv-x="374" d="M248 1341q0 99 108.5 220t233.5 161l2 -20q-90 -36 -157 -112.5t-83 -147.5q42 0 72.5 -24.5t30.5 -65.5q0 -46 -30.5 -77.5t-80.5 -31.5q-44 0 -70 26t-26 72z" />
<glyph unicode="&#x2019;" horiz-adv-x="393" d="M174 1264q90 36 157 112.5t83 147.5q-42 0 -72.5 24.5t-30.5 65.5q0 46 30.5 77t80.5 31q44 0 70 -26t26 -72q0 -99 -108.5 -220t-233.5 -161z" />
<glyph unicode="&#x201a;" horiz-adv-x="380" d="M-156 -240q90 36 157 112.5t83 147.5q-42 0 -72 25t-30 66q0 46 30 77t80 31q44 0 70 -26t26 -72q0 -99 -108.5 -220t-233.5 -161z" />
<glyph unicode="&#x201c;" horiz-adv-x="636" d="M248 1343q0 99 108.5 220t233.5 161l2 -20q-90 -36 -157 -112.5t-83 -147.5q42 0 72.5 -24.5t30.5 -65.5q0 -46 -30.5 -77.5t-80.5 -31.5q-44 0 -70 26t-26 72zM510 1343q0 99 108.5 220t233.5 161l2 -20q-90 -36 -157 -112.5t-83 -147.5q42 0 72.5 -24.5t30.5 -65.5 q0 -46 -30.5 -77.5t-80.5 -31.5q-44 0 -70 26t-26 72z" />
<glyph unicode="&#x201d;" horiz-adv-x="643" d="M164 1266q90 36 156.5 112.5t82.5 147.5q-42 0 -72 24.5t-30 65.5q0 46 30.5 77t80.5 31q44 0 70 -26t26 -72q0 -99 -108.5 -220t-233.5 -161zM426 1266q90 36 157 112.5t83 147.5q-42 0 -72.5 24.5t-30.5 65.5q0 46 30.5 77t80.5 31q44 0 70 -26t26 -72 q0 -99 -108.5 -220t-233.5 -161z" />
<glyph unicode="&#x201e;" horiz-adv-x="643" d="M-156 -240q90 36 157 112.5t83 147.5q-42 0 -72 25t-30 66q0 46 30 77t80 31q44 0 70 -26t26 -72q0 -99 -108.5 -220t-233.5 -161zM106 -240q90 36 157 112.5t83 147.5q-42 0 -72 25t-30 66q0 46 30 77t80 31q44 0 70.5 -26t26.5 -72q0 -99 -108.5 -220t-233.5 -161z" />
<glyph unicode="&#x2022;" horiz-adv-x="499" d="M111 608q0 59 40.5 99.5t100.5 40.5q61 0 103 -40.5t42 -99.5q0 -62 -42 -104.5t-103 -42.5q-60 0 -100.5 42.5t-40.5 104.5z" />
<glyph unicode="&#x2026;" horiz-adv-x="890" d="M-25 90q0 41 29 69.5t70 28.5q43 0 72.5 -28.5t29.5 -69.5q0 -43 -29.5 -72.5t-72.5 -29.5q-41 0 -70 29.5t-29 72.5zM240 90q0 41 28.5 69.5t69.5 28.5q43 0 72.5 -28.5t29.5 -69.5q0 -43 -29.5 -72.5t-72.5 -29.5q-41 0 -69.5 29.5t-28.5 72.5zM504 90q0 41 28.5 69.5 t69.5 28.5q43 0 73 -28.5t30 -69.5q0 -43 -30 -72.5t-73 -29.5q-41 0 -69.5 29.5t-28.5 72.5z" />
<glyph unicode="&#x202f;" horiz-adv-x="417" />
<glyph unicode="&#x2039;" horiz-adv-x="755" d="M133 559v10l518 486l15 -17l-381 -473l180 -475l-23 -16z" />
<glyph unicode="&#x203a;" horiz-adv-x="755" d="M80 90l381 475l-180 473l22 17l311 -486l-4 -10l-516 -485z" />
<glyph unicode="&#x205f;" horiz-adv-x="521" />
<glyph unicode="&#x20ac;" horiz-adv-x="1167" d="M45 696l8 47h148q15 82 37 172h-148l10 46h150q32 110 75.5 208.5t104 189.5t130.5 156.5t159 104.5t186 39q113 0 195 -35.5t149 -110.5l-100 -475l-19 -2l13 142q9 238 -49.5 336t-196.5 98q-87 0 -166.5 -54.5t-141.5 -149.5t-109.5 -206t-84.5 -241h602l-24 -46h-590 q-22 -78 -39 -172h551l-25 -47h-534q-25 -156 -25 -262q0 -123 25 -212.5t81.5 -142t141.5 -52.5q137 0 235.5 90.5t186.5 314.5l55 164l19 -2l-101 -477q-100 -70 -196.5 -103.5t-208.5 -33.5q-183 0 -277 136t-94 376q0 99 17 204h-150z" />
<glyph unicode="&#x2122;" horiz-adv-x="1067" d="M254 1077l2 15q45 6 61.5 22.5t26.5 69.5l92 428h-43q-33 0 -53 -20.5t-39 -73.5l-25 -62l-14 2l37 180h356l-37 -180l-18 -2l4 62q3 53 -9 73.5t-46 20.5h-39l-92 -428q-11 -54 -2 -70.5t49 -21.5l-2 -15h-209zM582 1077l4 15q39 10 55 45t35 129l57 270q11 49 4.5 67.5 t-41.5 22.5l2 12h136l36 -389l193 389h149l-2 -12q-38 -4 -52 -21.5t-23 -68.5l-76 -356q-12 -50 -4.5 -67.5t41.5 -20.5l-2 -15h-189l4 15q37 3 51 20t25 68l88 413l-256 -516h-8l-41 473l-61 -284q-19 -84 -17 -124t35 -50l-4 -15h-139z" />
<glyph unicode="&#x25fc;" horiz-adv-x="1198" d="M0 0v1198h1198v-1198h-1198z" />
<glyph unicode="&#xfb04;" horiz-adv-x="1976" d="M-276 -420l36 168q82 -55 138 -55q117 0 185.5 112.5t102.5 323.5l156 975h-154l5 16l159 45q21 106 66.5 194.5t103 148t128 102t139 63.5t137.5 27l-35 -168q-86 65 -141 65q-109 0 -173 -110t-102 -336h270l-10 -47h-266l-141 -840q-24 -147 -71 -263t-104.5 -190.5 t-130.5 -125t-145 -74.5t-153 -31zM375 -420l37 168q82 -55 137 -55q117 0 186 112.5t103 323.5l155 975h-153l4 16l160 45q21 106 66 194.5t103 148t128 102t138.5 63.5t137.5 27l-35 -168q-86 65 -141 65q-109 0 -173 -110t-102 -336h271l-11 -47h-266l-141 -840 q-24 -147 -71 -263t-104.5 -190.5t-130.5 -125t-145 -74.5t-153 -31zM1505 94q-4 33 1 83.5t13.5 97.5t22.5 112l221 1018q13 61 14.5 96t-12.5 56t-40 27.5t-74 6.5l2 19l284 90l11 -12l-283 -1303q-19 -87 -28 -144t-10 -101.5t10.5 -64.5t35.5 -20q43 0 86 58t94 204 l17 -8q-43 -165 -108 -248.5t-140 -83.5q-38 0 -63 13.5t-37.5 42t-16.5 61.5z" />
</font>
</defs>
</svg>
