<svg width="68" height="13" viewBox="0 0 68 13" fill="none" xmlns="http://www.w3.org/2000/svg">
<path d="M6.26839 11.4733C3.913 11.4733 1.28745 9.93573 1.28745 6.24974C1.28745 2.79965 3.72727 1.12726 6.06578 1.12726C7.45453 1.12726 8.60691 1.71702 9.26962 2.90075H9.32028L9.42159 0.718647C8.94882 0.684946 8.55625 0.583845 8.13414 0.465893C7.61072 0.331091 7.03242 0.196289 6.18397 0.196289C2.74374 0.196289 0 2.42895 0 6.19919C0 9.96943 2.43982 12.4548 6.28528 12.4043C7.55584 12.3874 8.67444 12.1347 9.33294 11.6924L9.61998 9.88518H9.56933C8.90661 10.7488 7.72469 11.4733 6.26417 11.4733H6.26839Z" fill="white"/>
<path d="M24.1176 9.88537L22.1844 6.70489C23.6744 6.21623 24.5398 5.1336 24.5398 3.62972C24.5398 1.61612 23.0666 0.381836 20.6268 0.381836H16.5449V0.415536C16.6462 0.68514 16.8151 1.00529 16.8151 2.34489V10.2561C16.8151 11.5915 16.6462 11.9116 16.5449 12.1854V12.2191H18.2207V12.1854C18.1194 11.9158 17.9506 11.5957 17.9506 10.2561V7.00819H21.0658L23.438 10.8795C23.9277 11.6926 24.1008 12.0127 24.1683 12.2149H25.9961V12.1644C25.6752 11.9959 24.8606 11.0986 24.1134 9.88116L24.1176 9.88537ZM20.1202 6.09828H17.9506V1.29596H20.5255C22.4587 1.29596 23.2523 2.34489 23.2523 3.61287C23.2523 4.88085 22.4039 6.09828 20.116 6.09828H20.1202Z" fill="white"/>
<path d="M48.8496 0.415536C48.9509 0.68514 49.1198 1.00529 49.1198 2.34489V10.2561C49.1198 11.5915 48.9509 11.9116 48.8496 12.1854V12.2191H50.5254V12.1854C50.4241 11.9158 50.2552 11.5957 50.2552 10.2561V2.34489C50.2552 1.00951 50.4241 0.689353 50.5254 0.415536V0.381836H48.8496V0.415536Z" fill="white"/>
<path d="M66.1553 5.62798C66.2566 5.84703 66.4255 6.16719 66.4255 7.55733V10.464C65.6446 11.0706 64.9523 11.2939 63.3272 11.2939C60.8029 11.2939 58.667 9.62149 58.667 6.08715C58.667 2.55281 61.09 0.930976 63.5298 0.930976C64.9861 0.930976 66.493 1.52073 67.1557 2.70446L67.2064 2.68761L67.3077 0.522357C66.206 0.438106 65.0198 0 63.5635 0C60.1233 0 57.2445 2.33376 57.3796 6.2725C57.5146 10.0427 59.7687 12.2248 63.4454 12.2248C64.9354 12.2248 65.7163 11.8373 66.9193 11.2265C67.1895 11.0917 67.3077 11.0243 67.5821 10.9063V7.55733C67.5821 6.1714 67.7509 5.85125 67.8522 5.62798V5.59428H66.1595V5.62798H66.1553Z" fill="white"/>
<path d="M41.4824 11.0185L38.3629 1.09376C38.2616 0.773604 38.2279 0.466087 38.2616 0.381836H34.8763C34.91 0.466087 34.8763 0.769391 34.775 1.09376L31.6555 11.0185C31.4529 11.6631 31.2165 12.0338 31.1152 12.1854V12.2191H32.7235V12.1854C32.7066 11.7305 32.9092 10.9848 33.1118 10.3108L33.7028 8.39834H39.4267L40.0176 10.3108C40.2202 10.9891 40.4228 11.7305 40.406 12.1854V12.2191H42.0142V12.1854C41.9129 12.0338 41.6765 11.6631 41.4739 11.0185H41.4824ZM33.9772 7.48421L35.8936 1.31281H37.2485L39.1649 7.48421H33.9814H33.9772Z" fill="white"/>
</svg>
