<svg width="67" height="12" viewBox="0 0 67 12" fill="none" xmlns="http://www.w3.org/2000/svg">
<path d="M6.45412 10.9063H1.40564V1.96305C1.40564 0.577121 1.57449 0.256966 1.67579 0.0337005V0H0V0.0337005C0.101307 0.252754 0.270153 0.572908 0.270153 1.96305V9.87424C0.270153 11.2602 0.101307 11.5803 0 11.8036V11.8373H8.43806V10.6536H8.38741C8.16791 10.7547 7.84709 10.9063 6.45412 10.9063Z" fill="white"/>
<path d="M14.123 0.0337005C14.2244 0.303304 14.3932 0.623459 14.3932 1.96305V9.87424C14.3932 11.2096 14.2244 11.5298 14.123 11.8036V11.8373H15.7988V11.8036C15.6975 11.534 15.5287 11.2138 15.5287 9.87424V1.96305C15.5287 0.627671 15.6975 0.307517 15.7988 0.0337005V0H14.123V0.0337005Z" fill="white"/>
<path d="M32.2994 0.0337005C32.4007 0.303304 32.5864 0.623459 32.5864 1.96305V8.48831L25.0137 2.26636C24.7773 2.06415 24.5578 1.76085 24.5578 1.23428C24.5578 0.661372 24.5916 0.387555 24.7435 0.0337005V0H23.3379V0.0337005C23.4392 0.303304 23.608 0.623459 23.608 1.96305V9.87424C23.608 11.2096 23.4392 11.5298 23.3379 11.8036V11.8373H24.8448V11.8036C24.7435 11.534 24.5578 11.2138 24.5578 9.87424V3.39954L31.9279 9.45298C32.4513 9.87424 32.6075 10.2323 32.6075 10.6873V11.0411C32.6075 11.3781 32.5569 11.5803 32.4724 11.8036V11.8373H33.8105V11.8036C33.7261 11.534 33.5404 11.0917 33.5404 9.89109V1.96305C33.5404 0.627671 33.7092 0.307517 33.8105 0.0337005V0H32.3036V0.0337005H32.2994Z" fill="white"/>
<path d="M49.85 10.2829L46.9206 5.44684L49.3942 1.8788C50.0906 0.880425 50.7323 0.341217 51.0362 0.037913V0.00421256H49.3942C49.3097 0.459169 48.7652 1.18794 48.3431 1.79455L45.9877 5.19409H42.7501V1.96305C42.7501 0.577121 42.9189 0.256966 43.0202 0.0337005V0H41.3613V0.0337005C41.4626 0.252754 41.6146 0.572908 41.6146 1.96305V9.53724C41.6146 10.9232 41.4626 11.5845 41.3613 11.8036V11.8373H43.0202V11.8036C42.9189 11.5845 42.7501 11.2644 42.7501 9.53724V6.104H45.9877L48.6639 10.5019C49.0522 11.1464 49.3435 11.6688 49.3435 11.8373H51.205V11.7867C50.9349 11.6519 50.3059 11.0411 49.85 10.2829Z" fill="white"/>
<path d="M66.2322 10.6704C66.0127 10.7715 65.6919 10.9232 64.2989 10.9232H59.2842V6.05345H62.1462C63.3661 6.05345 64.3665 6.2051 64.586 6.3062H64.6366V4.88657H64.586C64.3665 4.98767 63.3661 5.13932 62.1462 5.13932H59.2842V0.914125H63.7249C65.1136 0.914125 65.4344 1.06578 65.6581 1.16688H65.7088V0H57.8828V0.0337005C57.9841 0.303304 58.153 0.623459 58.153 1.96305V9.87424C58.153 11.2096 57.9841 11.5298 57.8828 11.8036V11.8373H66.2871V10.6704H66.2365H66.2322Z" fill="white"/>
</svg>
